<svg width="60" height="95" viewBox="0 0 60 95" fill="none" xmlns="http://www.w3.org/2000/svg">
<path d="M54.7151 8.19767C54.9277 5.69033 55.1829 3.18299 56.0758 0.845641C56.1608 0.633154 56.2458 0.42066 56.3734 0.293168C57.0537 -0.429286 58.3719 0.293176 58.5845 1.27061C58.7971 2.24805 58.3718 3.22548 58.0742 4.16042C57.1388 7.17773 57.6915 10.45 57.0963 13.5523C56.586 16.2297 55.2254 18.6945 55.0128 21.4143C55.6931 19.4594 56.3734 17.5471 57.0537 15.5922C57.4364 14.5298 58.1167 13.2973 59.2223 13.4248C59.0522 15.5497 58.8396 17.7171 58.6695 19.8419C58.5844 20.8194 58.4994 21.8818 57.9892 22.7742C55.9482 26.514 53.3545 25.1541 53.4395 21.4993C53.5246 17.1221 54.2474 12.6174 54.6301 8.24017" fill="#91B3C7"/>
<path d="M42.3057 65.4413C43.6238 64.2089 44.6442 63.189 45.5797 61.6591C45.6222 61.5741 45.6647 61.4891 45.7923 61.4891C45.8773 61.4891 45.9198 61.4891 46.0049 61.4891C46.345 61.6166 46.7703 61.3191 47.1104 61.2766C46.9404 62.679 43.964 64.5489 44.6443 66.0788C45.0269 66.9712 47.323 66.8862 48.0884 65.6963C48.471 65.1014 48.4711 64.1664 48.5986 63.4865C48.8112 62.509 48.6836 61.4466 48.6836 60.4267C48.6836 60.5116 48.6836 60.5541 48.6836 60.6391C49.0663 60.7241 49.6191 60.7241 49.8317 60.3842C50.0868 60.7241 49.6616 60.8516 49.7466 61.2766C49.8742 62.169 50.4269 62.2965 49.9592 63.1465C49.5766 63.8689 49.3639 64.7189 49.6191 65.5688C50.0017 66.8013 51.2348 67.1837 51.0647 67.6087C50.9372 67.9912 49.9167 67.8212 47.6206 67.6087C45.7498 67.4812 44.8144 67.3962 43.7089 67.3962C41.7104 67.3962 40.775 67.6512 40.6474 67.3112C40.5198 66.9712 41.2427 66.4188 42.2632 65.4413" fill="#91B3C7"/>
<path d="M37.7081 43.5976C38.3033 42.5777 38.8986 41.5577 39.4939 40.5803C38.2183 40.8353 37.623 41.8552 36.1774 42.5352C35.7096 42.7477 35.1994 42.8752 34.2215 43.0876C31.5852 43.6826 30.99 43.2151 29.7994 43.9376C29.4167 44.1501 28.9065 44.6175 27.9285 45.51C27.2907 46.0624 27.1632 46.2324 26.738 46.6149C25.4624 47.8048 25.1648 47.6349 24.0167 48.6123C22.6986 49.7597 22.4435 50.5672 20.9978 51.1621C20.5726 51.3746 20.3175 51.3746 20.1049 51.3746C18.9569 51.2471 18.0215 49.5897 17.8089 48.3148C17.6388 47.1674 17.9789 46.3599 18.5317 45.1275C19.0844 43.9376 19.8498 42.1952 21.7207 40.7503C23.6766 39.3054 25.8876 39.3479 28.2262 39.1779C30.8199 39.0079 33.4986 39.2204 35.9222 40.2828C34.0939 39.4754 32.223 38.6679 30.2671 38.2854C27.4183 37.6905 24.0167 38.0305 21.6356 39.7728C18.7018 41.8977 15.6829 46.0624 16.916 48.9098C17.3412 49.9297 18.2766 50.6522 18.2341 51.9696C18.149 53.4145 18.0215 54.0944 18.0215 54.0944C17.8939 54.6469 17.7663 55.0719 18.0215 55.2844C18.2341 55.4968 18.7018 55.2844 18.9144 55.2844C22.401 54.0519 22.9112 53.8819 23.5915 53.8395C23.6766 53.8395 23.5915 53.8395 26.3978 54.1794C27.2907 54.2644 27.8435 54.3494 28.1837 54.7744C28.3538 54.9869 28.5238 55.1569 28.8215 55.3694C29.1616 55.6243 29.5868 55.7943 30.012 55.8793C31.16 56.1343 32.4357 56.1768 32.6482 56.8143C33.4986 55.4968 30.9475 55.4968 30.3097 54.7744C29.8845 54.3069 29.3742 53.9669 28.7364 53.882C27.6309 53.7545 27.1206 53.372 25.8025 52.607C25.5899 52.4795 24.7396 52.0121 24.7821 51.5446C24.7821 51.2046 25.3774 51.2046 25.7175 50.7372C26.1002 50.1847 25.8025 49.7172 26.0151 49.0373C26.1852 48.3148 26.738 48.0598 27.7585 47.2524C29.3317 46.0199 29.2892 45.6375 30.1396 45.085C31.3726 44.1926 33.7112 43.5551 35.1144 44.3201C37.0703 45.3825 38.8561 46.7849 40.8545 47.8473C42.8104 48.9098 44.8939 49.7597 47.1049 50.0147C47.5301 50.0572 48.338 50.2272 48.7207 50.0147C49.1459 49.7597 48.9758 49.5047 49.1884 49.2072C49.4435 48.9098 49.1884 48.9098 49.6136 48.6548C49.9963 48.4423 51.1443 48.6548 51.5695 48.6123C52.2498 48.6123 52.9301 48.6123 53.5679 48.3573C55.1837 47.8473 56.2466 46.2749 56.6293 44.6175C57.012 42.9602 56.7569 41.2603 56.5443 39.6029C56.3317 37.9455 56.0766 36.2456 56.3742 34.5882C56.5443 33.6532 56.927 32.7608 56.7569 31.8259C56.5868 30.8909 55.5664 30.0835 54.7585 30.5084" fill="#91B3C7"/>
<path d="M41.7015 83.9273C40.3834 84.5647 39.1503 85.2872 37.9598 86.1371C36.9818 85.3297 35.7487 84.4797 34.6007 84.3947C33.5377 84.3097 32.6448 84.8622 31.5818 84.8197C31.7944 85.6272 31.9644 86.4771 32.177 87.3271C31.029 86.7746 30.6889 85.5847 29.5408 84.5647C29.1582 84.2248 28.733 84.0123 27.8826 83.6298C25.7141 82.5674 25.0338 82.9073 24.1834 82.0149C23.9282 81.7174 23.6306 81.2074 23.0779 80.23C22.7377 79.5925 22.6952 79.4226 22.4401 79.0401C21.7598 77.8077 21.5046 77.8927 20.9093 76.8727C20.229 75.7253 20.314 75.0028 19.4211 74.3229C19.166 74.1104 18.996 74.0679 18.8259 74.0679C17.933 74.0679 16.6999 75.2578 16.0621 76.3203C15.5094 77.2552 15.5093 77.9776 15.4668 79.1251C15.4668 80.2725 15.3818 81.9724 16.3597 83.5873C17.1676 84.9472 18.2306 85.5847 19.5062 86.3071C21.5046 87.4545 23.418 87.837 25.3314 88.177C28.6479 88.772 30.5613 88.602 30.5613 88.687C30.5613 88.8995 23.5031 90.3869 18.6133 87.1996C17.0401 86.1796 16.2322 84.9897 15.9345 84.5222C14.4038 82.0574 13.7235 77.9352 15.6369 75.7253C16.3172 74.9603 17.2526 74.4504 17.6353 73.3879C18.0605 72.2405 18.1881 71.6881 18.1881 71.6881C18.2731 71.2631 18.3156 70.9231 18.5282 70.7956C18.7408 70.6681 19.0385 70.7956 19.166 70.9231C21.377 72.2405 21.7598 72.4105 22.2275 72.538C22.27 72.538 22.2275 72.538 24.5661 72.538C25.3314 72.538 25.7991 72.538 26.1818 72.2405C26.3944 72.113 26.5645 71.943 26.9046 71.8156C27.2873 71.6456 27.67 71.5606 28.0526 71.5181C29.0731 71.4331 30.1787 71.5181 30.5188 71.0506C30.9015 72.2405 28.733 71.943 27.9676 72.4955C27.4999 72.8355 26.9471 73.0905 26.4369 73.048C25.5014 73.048 24.9912 73.2604 23.6731 73.7704C23.4605 73.8554 22.6526 74.1529 22.5251 74.5354C22.44 74.8329 22.8652 74.8753 23.0353 75.3428C23.2054 75.8528 22.7802 76.2353 22.6952 76.8727C22.6101 77.5527 22.9503 77.8502 23.5456 78.7001C24.481 80.06 24.3534 80.4 24.8637 81.08C25.9267 82.4824 27.755 82.7799 29.4558 83.0773C32.3472 83.5448 35.4085 83.6298 38.5125 84.0548C39.5755 84.2248 40.681 84.0973 41.744 83.9273" fill="#91B3C7"/>
<path d="M33.7604 57.1531C35.2911 57.6206 36.7367 58.2155 38.1399 58.7255C38.8627 58.9805 39.5856 59.2355 40.2659 59.4905L42.3919 60.1704C43.795 60.5954 45.2832 61.0204 46.8139 60.8504C48.3446 60.7229 49.7903 60.1279 51.0234 59.278C52.2565 58.428 53.362 57.4081 54.3399 56.3457C55.3179 55.2407 56.0832 54.0083 56.7635 52.6909C58.1667 50.0986 58.9746 47.2087 59.4848 44.1064H59.6549C60.3777 47.2087 59.9525 50.6085 58.5494 53.5833C57.8265 55.0707 56.8061 56.4307 55.6155 57.5356C55.0203 58.0881 54.3825 58.6405 53.7021 59.0655C53.0218 59.4905 52.2564 59.8729 51.5336 60.1704C50.0029 60.7654 48.4722 61.1903 46.899 61.4453C45.3258 61.7428 43.6675 61.9128 42.0517 61.6578C40.436 61.4028 38.9052 60.7654 37.5021 60.0004C36.0989 59.2355 34.8234 58.343 33.6328 57.2806L33.7179 57.1106L33.7604 57.1531Z" fill="#91B3C7"/>
<path d="M45.5702 73.6005C46.8458 74.068 47.9939 75.0454 48.5041 76.3204C48.8018 76.9578 48.8868 77.6378 48.9293 78.3602C48.9293 78.5302 48.9293 78.7002 48.9293 78.8702C48.9293 79.0402 48.9293 79.2102 48.8443 79.3802C48.8443 79.5502 48.7592 79.7202 48.7167 79.8901L48.5466 80.4001C48.0364 81.7175 46.8884 82.7375 45.5277 83.2474C44.2521 83.6724 42.9765 84.1399 41.7435 84.6923C40.5104 85.2448 39.3199 85.8398 38.2144 86.5622C37.1089 87.2847 36.0033 88.0496 35.0679 88.9421C34.0899 89.8345 33.2821 90.8969 32.3041 91.8744C31.3262 92.8943 30.0506 93.6593 28.6899 94.1692C25.9687 95.1042 23.1624 95.0192 20.4836 94.9767C17.7624 94.8917 15.0836 95.0617 12.3199 94.8917C10.9592 94.8067 9.59859 94.5942 8.28048 94.2117C6.96237 93.8717 5.68679 93.1918 4.6238 92.2993C4.11356 91.8319 3.60331 91.3644 3.17812 90.8119C2.75292 90.2595 2.37025 89.6645 2.07262 89.0271C1.77498 88.3896 1.60489 87.7096 1.47733 86.9872C1.39229 86.2647 1.47735 85.5423 1.60491 84.8623C1.94507 83.4174 2.96551 82.355 3.22063 81.1651C3.34819 80.5701 3.26316 80.0176 2.96552 79.5077C2.66788 78.9977 2.20016 78.5727 1.68993 78.2327C1.56237 78.1477 1.43481 78.0628 1.26473 77.9778L1.05213 77.8503C0.967092 77.8078 0.882063 77.7228 0.797024 77.6803C0.414347 77.4253 0.159197 77.0003 0.0741578 76.5754C-0.0534013 76.1504 -0.0108504 75.6829 0.159228 75.2579C0.244268 75.0454 0.329286 74.8755 0.456846 74.748L0.711953 74.2805C1.47731 73.0906 2.41274 72.0281 3.47573 71.0932C5.60172 69.2233 8.11042 67.9059 10.7466 67.0135C13.3829 66.0785 16.1891 65.7385 18.9104 65.5686C21.6742 65.4411 24.3955 65.4836 27.1167 65.6111C28.4774 65.696 29.7955 65.696 31.1986 65.8235C31.5388 65.8235 31.8789 65.866 32.2191 65.951C32.3892 65.951 32.5592 65.9935 32.7293 66.036H32.9844C33.112 66.121 33.2396 66.121 33.3246 66.206C33.7923 66.4185 34.1325 66.886 34.175 67.3534C34.2175 67.8209 34.0474 68.3309 33.6647 68.6284C33.5797 68.7134 33.4521 68.7984 33.4096 68.7984C33.3671 68.7984 33.282 68.8833 33.2395 68.9258C33.112 69.0108 33.027 69.0958 32.9419 69.1808C32.7718 69.3933 32.7293 69.6483 32.7293 69.9033C32.7293 70.4133 33.197 70.8382 33.7923 71.0932C34.3876 71.3482 35.0254 71.4757 35.7057 71.5607C36.3435 71.6032 37.0663 71.6457 37.7467 71.6882C40.4679 71.9856 43.1041 72.6656 45.6553 73.6005M45.5277 73.728C42.9766 72.8356 40.2978 72.1556 37.6191 72.0281C36.9388 72.0281 36.3009 72.0281 35.5781 72.0281C34.8978 72.0281 34.175 71.9006 33.4947 71.6457C33.1545 71.5182 32.8144 71.3482 32.5167 71.0507C32.2191 70.7957 32.0065 70.3707 31.9639 69.9458C31.9639 69.5208 32.0065 69.0958 32.2616 68.7559C32.3892 68.5859 32.5167 68.4159 32.6868 68.2884C32.7718 68.2034 32.8569 68.1609 32.9419 68.1184C33.027 68.0759 33.027 68.0334 33.0695 67.9909C33.1971 67.8634 33.282 67.6509 33.2395 67.4384C33.2395 67.2259 33.0695 67.0985 32.8994 67.056C32.8994 67.056 32.8143 67.056 32.7718 67.056H32.5167L32.0065 66.971C31.6663 66.971 31.3262 66.9285 31.0285 66.9285H26.9892C24.2679 66.8435 21.5891 66.7585 18.9104 66.9285C17.5923 67.0135 16.2317 67.141 14.9135 67.3534C13.5954 67.5659 12.3199 67.8634 11.0443 68.2884C8.5356 69.0958 6.15452 70.3283 4.15609 72.0281C3.17814 72.8781 2.28518 73.8555 1.56235 74.918L1.30724 75.3429C1.2222 75.4704 1.13716 75.6404 1.09464 75.7254C1.0096 75.9379 0.967092 76.1504 1.05213 76.4054C1.09465 76.6179 1.22223 76.8303 1.39231 76.9578C1.43483 76.9578 1.47731 77.0003 1.56235 77.0428L1.77495 77.1703C1.94502 77.2553 2.07263 77.3828 2.2427 77.4678C2.83798 77.8928 3.39073 78.4027 3.7734 79.0827C4.15608 79.7626 4.24111 80.6551 4.02851 81.3776C3.60331 82.865 2.58286 83.8424 2.2427 85.0323C2.07263 85.6273 1.98758 86.2647 2.07262 86.9447C2.15765 87.5821 2.2852 88.2196 2.54032 88.8146C3.05056 90.047 3.90095 91.1094 4.87891 91.9594C6.91985 93.7443 9.68363 94.3392 12.3199 94.4667C14.9986 94.5942 17.7198 94.2967 20.4411 94.2542C23.1198 94.1692 25.8836 94.1267 28.3073 93.1918C29.4978 92.7243 30.6033 92.0444 31.4962 91.1094C32.3891 90.1745 33.2395 89.0696 34.3025 88.1346C36.386 86.2647 38.8947 84.9473 41.4459 83.9699C42.7214 83.4599 44.0395 83.1199 45.3576 82.7375C46.5907 82.355 47.6963 81.505 48.249 80.3151C48.5466 79.7202 48.6742 79.0827 48.7167 78.4027C48.7167 77.7228 48.6317 77.0853 48.3766 76.4479C47.9089 75.2154 46.8033 74.238 45.5702 73.7705" fill="#91B3C7"/>
</svg>
