<svg width="298" height="123" viewBox="0 0 298 123" fill="none" xmlns="http://www.w3.org/2000/svg">
<path d="M33.1291 114.308C32.5959 114.984 31.7783 115.801 30.9962 116.797C28.3656 119.748 24.953 122.769 21.1849 122.983C18.4832 123.125 16.5992 121.561 15.9948 119.57C15.7105 119.037 15.3905 118.503 14.644 118.432C14.253 118.432 13.7553 118.645 13.3643 118.823C12.2267 119.57 11.2314 120.174 10.2716 120.779C7.32107 122.521 2.41542 124.76 0.460268 120.459C-1.35269 116.37 2.59316 111.393 5.29482 108.691C8.24533 105.811 13.0799 102.576 17.4523 102.861C19.6563 102.932 21.0071 104.069 21.5404 105.669C21.7537 105.989 22.0025 106.345 22.4646 106.274C22.8556 106.274 23.2111 106.131 23.46 105.954C24.6686 104.958 25.4862 103.856 26.2327 103.003C27.1214 102.185 28.3301 102.861 28.7922 103.678C29.0055 103.963 29.0766 104.212 29.0766 104.496C29.6809 106.096 28.0101 107.802 26.6593 109.082C24.9885 110.682 22.9623 112.637 21.7537 114.735C20.6161 116.69 21.0071 119.037 23.7088 118.717C24.5975 118.432 25.3085 118.183 25.8417 117.792C26.9081 117.188 27.7969 116.37 28.7211 115.659C29.6098 114.735 30.5341 113.775 31.3517 112.708C32.347 111.5 34.1244 113.242 33.0935 114.45L33.1291 114.308ZM17.7367 107.589C16.2437 106.06 14.5729 106.451 12.6889 107.127C9.80945 108.193 6.57456 110.433 5.08154 113.242C4.08619 115.268 4.69051 117.828 7.56991 117.686C8.77855 117.686 10.4493 116.868 11.5513 116.264C12.831 115.588 13.8264 114.664 14.7862 113.562C15.3194 113.099 19.0875 108.798 17.7367 107.589Z" fill="#91B3C7"/>
<path d="M63.8328 114.378C63.2995 115.125 62.4819 115.907 61.6999 116.867C59.6736 119.071 57.3274 121.311 54.6613 122.377C54.6613 122.377 54.3769 122.591 54.3769 122.519C53.0972 123.053 51.8886 123.053 50.9998 122.733C50.9287 122.662 50.8577 122.662 50.8577 122.662C48.8314 121.773 48.5826 119.426 49.258 117.471C49.5424 116.476 50.0756 115.445 50.751 114.378C51.2842 113.454 51.8885 112.494 52.3507 111.747C52.564 111.285 52.955 110.823 53.0972 110.219C53.4171 108.69 51.6042 108.192 50.1467 108.939C48.7248 109.614 47.5872 110.965 46.663 112.032C44.9211 114.129 40.9397 119.498 40.6909 120.031C39.8733 121.382 38.7357 122.662 37.136 122.91C35.9274 123.195 35.0031 122.519 34.861 120.777C34.861 119.498 38.0247 116.191 39.3045 114.378C40.1932 113.24 42.7171 109.756 40.1221 108.939C38.5224 108.477 36.7095 110.29 35.5008 111.712C34.4344 113.063 33.4035 114.2 32.5503 115.196C31.4128 116.333 29.7776 114.663 30.8085 113.454C31.6972 112.245 34.2922 109.01 35.7141 107.659C37.2427 106.308 39.1267 104.779 40.762 104.353C42.2905 103.962 43.6414 104.353 44.5301 106.237C44.6723 106.379 44.6723 106.557 44.7434 106.699C45.1344 107.303 45.3477 107.908 46.2719 107.908C47.4806 107.837 48.9025 106.415 50.2533 105.277C52.2085 103.606 54.6969 102.504 56.6876 102.717C58.7138 103.002 59.6381 105.064 59.3181 106.948C59.1048 107.766 58.5716 108.619 57.8962 109.508C56.9719 111.001 55.7989 112.281 54.9457 113.738C54.1281 114.947 52.9194 117.649 54.8746 118.04C55.3367 118.182 55.87 118.04 56.3676 117.827C56.8653 117.613 57.1852 117.436 57.5052 117.222C58.1806 116.689 58.9271 116.085 59.5314 115.551C60.4557 114.627 61.4155 113.667 62.2331 112.601C63.2284 111.392 64.9347 113.134 63.9749 114.343L63.8328 114.378Z" fill="#91B3C7"/>
<path d="M89.5706 98.9849C87.2244 99.8737 84.1317 99.2694 81.5011 98.9138C81.1812 98.9138 80.8968 98.985 80.5769 99.1983C80.1859 99.4116 79.6882 99.7315 79.2972 100.194C75.6001 105.633 70.6945 113.49 70.2324 114.628C69.9124 115.623 69.5569 116.974 69.948 117.721C70.9433 119.463 73.3251 118.609 74.9958 117.863C75.0669 117.792 75.2091 117.721 75.2802 117.649C76.2045 117.045 77.1643 116.298 77.9819 115.516C78.9061 114.628 79.7948 113.632 80.5413 112.637C81.5367 111.357 83.243 113.099 82.2121 114.379C81.75 114.983 81.0035 115.801 80.1148 116.796C77.6264 119.747 74.3204 122.982 70.6945 122.982C67.0686 122.982 65.0423 118.68 65.7888 115.979C66.6775 113.277 69.7702 108.299 71.7609 105.633C71.9742 105.313 71.5476 105.171 71.2988 105.491C68.8815 108.299 65.7177 112.068 63.3715 114.912C62.4473 116.192 60.6699 114.45 61.6297 113.17C63.6559 110.681 68.7393 105.384 73.1829 100.194C73.4672 99.7315 73.7161 99.1983 73.5028 98.7005C73.4317 98.4872 73.1118 98.3806 72.7563 98.3095C72.0098 98.2384 71.3343 98.2384 70.73 98.1673C69.8413 98.1673 69.0593 98.1673 68.2417 98.2384C67.7795 98.2384 67.4951 98.0251 67.3174 97.7762C66.4287 97.1718 66.642 95.5009 67.9217 95.572C69.0593 95.6431 70.0546 95.7142 71.1566 95.7853C72.152 95.7853 73.254 95.8564 74.1782 95.9986C74.9958 95.9986 75.7068 95.7853 76.3822 95.6076C77.3064 95.2876 77.8752 94.3988 78.5151 93.7944V93.7233C80.4702 91.377 81.9277 89.4216 82.532 88.3551C84.0251 85.9376 85.4825 83.3068 87.5799 82.7735C89.2507 82.2402 90.3526 83.0579 90.2816 84.871C90.2105 86.3642 88.9307 87.6796 88.0776 88.8884C86.4779 90.9859 84.7005 92.9768 83.1008 95.0743C82.7098 95.5365 82.4965 95.9986 82.7809 96.2119C83.1719 96.4252 83.8473 96.283 84.2028 96.283H84.345C86.549 95.9631 89.0374 95.1454 90.3171 97.2785C90.7081 97.954 90.3171 98.7716 89.5706 99.0205V98.9849Z" fill="#91B3C7"/>
<path d="M99.5256 114.379C98.9213 115.125 94.3 121.382 91.5273 122.378C91.5273 122.378 91.2429 122.591 91.2429 122.52C90.0343 123.124 85.413 123.871 84.5954 119.569C84.2754 117.898 84.9153 116.334 85.5907 114.876C86.0528 114.059 87.617 111.463 88.2213 110.575C89.0389 109.366 89.9632 108.015 88.8967 107.695C88.1502 107.482 86.3372 109.793 84.5954 111.712C83.4578 112.921 82.498 114.201 81.5027 115.196C80.5073 116.334 78.801 114.663 79.7608 113.454C80.5073 112.566 82.1781 110.646 83.4578 109.224C84.3465 108.299 85.413 107.197 85.804 106.806C89.9632 102.718 90.6386 102.789 92.4515 102.824C93.8735 102.896 94.7266 105.242 94.4778 107.055C94.1934 108.726 91.7761 112.352 90.8519 113.845C90.1764 115.054 88.0791 118.823 90.4608 119.071C92.807 119.285 96.8951 113.703 97.7838 112.637C98.708 111.428 100.485 113.17 99.5256 114.379ZM92.807 95.8209C92.807 95.5009 92.807 95.1454 92.8781 94.8254C92.9492 94.3632 93.198 93.83 93.6957 93.4745C94.0868 93.0123 94.5133 92.8701 94.9755 92.7279C95.4376 92.5857 96.0419 92.5146 96.5751 92.7279C97.5705 93.0123 98.3881 93.9366 98.6014 94.9321C98.8858 96.2119 98.4592 97.634 97.2505 98.2384C96.1841 98.7716 94.8333 98.6294 93.8735 97.8473C93.8735 97.7762 93.8024 97.7762 93.8024 97.7762C93.4824 97.5629 93.2691 97.3851 93.1269 97.0296C92.9137 96.6385 92.8426 96.2119 92.807 95.8209Z" fill="#91B3C7"/>
<path d="M119.439 114.378C118.977 115.053 118.089 115.871 117.306 116.866C115.351 119.07 112.863 121.381 110.268 122.448L109.984 122.59C106.962 123.728 104.474 122.448 104.793 119.035C104.865 118.146 105.078 117.293 105.398 116.333C106.144 114.307 106.393 112.849 105.611 110.965C105.398 110.68 105.291 110.503 105.22 110.218C104.936 109.898 104.687 109.472 104.331 109.472C103.656 109.4 103.336 109.934 102.981 110.289C101.559 112.173 100.172 113.844 98.8925 115.195C97.7549 116.333 96.0131 114.52 97.1506 113.453C98.7503 111.711 100.172 109.898 101.381 107.943C101.523 107.801 101.594 107.658 101.701 107.552C101.985 107.161 102.092 106.805 102.305 106.485C102.376 106.414 102.447 106.272 102.447 106.201C102.732 105.312 102.589 104.53 102.376 103.712C101.843 102.184 101.487 100.619 101.843 99.0195C102.518 95.1799 107.886 92.5847 108.171 98.024C108.242 99.6239 107.886 101.33 107.175 103.072C106.962 103.89 106.962 104.672 107.104 105.561C107.104 105.632 107.175 105.774 107.175 105.845C107.78 107.125 108.526 108.405 109.379 109.934C110.73 112.422 108.455 115.977 108.562 117.186C108.846 119.533 111.334 118.395 113.076 117.328C113.752 116.795 114.356 116.191 115.102 115.658C116.027 114.733 116.915 113.773 117.733 112.707C118.728 111.498 120.435 113.24 119.475 114.449L119.439 114.378Z" fill="#91B3C7"/>
<path d="M138.399 114.484C135.022 118.466 131.61 119.533 129.868 119.106C129.725 119.106 129.477 119.106 129.406 119.319C128.872 119.853 128.41 120.244 127.806 120.742C124.393 123.372 119.808 124.368 117.675 119.817C114.902 113.773 119.808 106.45 124.855 103.428C125.389 103.144 125.744 103.215 125.993 103.428C126.206 103.57 126.384 103.499 126.526 103.357C127.273 102.468 128.197 101.686 129.228 101.259H129.299C130.188 100.939 130.899 100.726 131.432 100.726C134.311 100.726 135.662 103.072 135.449 106.556C135.164 109.365 134.24 112.28 132.676 114.947C132.463 115.267 132.818 115.764 133.209 115.551C134.418 115.16 135.555 113.951 136.444 112.92C136.444 112.92 136.515 112.92 136.515 112.849C136.586 112.849 136.586 112.778 136.586 112.707C137.582 111.427 139.359 113.24 138.399 114.449V114.484ZM126.419 117.577C126.633 117.435 126.633 117.115 126.491 116.831C125.673 115.764 125.069 114.413 124.749 113.133C124.358 111.783 124.287 110.325 124.429 108.903C124.429 108.512 123.967 108.156 123.682 108.583C122.687 109.578 121.798 110.858 121.265 112.138C120.376 114.236 119.985 117.791 123.22 118.182C124.358 118.324 125.424 118.111 126.455 117.577H126.419ZM132.889 104.672C132.072 102.717 129.868 104.814 129.192 106.485C128.801 107.765 128.659 109.187 128.73 110.467C128.73 111.534 128.801 112.814 129.263 113.773C129.334 114.058 129.654 114.307 130.081 113.916C131.752 112.103 133.778 106.912 132.889 104.708V104.672Z" fill="#91B3C7"/>
<path d="M180.295 114.381C179.762 115.056 179.015 115.874 178.091 116.798C176.136 119.002 173.79 121.313 171.088 122.38L170.804 122.522C169.524 122.984 168.386 123.055 167.427 122.664H167.356C167.356 122.664 167.284 122.664 167.284 122.593C165.258 121.775 165.009 119.429 165.685 117.473C165.969 116.407 166.502 115.447 167.178 114.381C167.782 113.456 169.382 110.754 169.453 110.221C169.524 109.901 169.453 108.87 168.529 108.728C165.649 108.123 163.09 111.359 161.739 113.172C160.53 114.594 159.251 118.896 159.108 119.429C158.575 121.562 157.153 123.197 155.269 122.984C153.385 122.7 153.136 121.171 153.385 119.749C153.669 118.256 154.594 116.798 155.411 115.589C156.3 113.989 157.367 112.212 157.615 111.679C157.829 111.288 158.22 110.754 158.362 110.185C158.682 108.586 156.94 108.088 155.411 108.906C153.989 109.51 152.923 110.932 151.928 111.999C150.257 114.025 146.275 119.464 146.027 119.998C145.138 121.277 144.071 122.628 142.401 122.877C141.192 123.091 140.197 122.486 140.126 120.673C140.126 119.464 143.289 116.158 144.569 114.345C145.387 113.207 148.053 109.652 145.387 108.906C143.858 108.443 142.01 110.257 140.765 111.679C139.77 112.958 138.668 114.096 137.815 115.163C136.677 116.229 135.042 114.558 136.073 113.35C136.962 112.212 139.628 108.977 140.979 107.626C142.507 106.204 144.391 104.746 146.098 104.319C147.591 103.857 148.906 104.319 149.795 106.204C149.937 106.346 149.937 106.488 150.008 106.666C150.47 107.27 150.683 107.875 151.537 107.803C152.816 107.803 154.167 106.381 155.518 105.173C157.473 103.573 159.606 102.471 161.703 102.755C163.196 102.897 163.978 106.061 164.938 106.061C165.898 106.061 166.751 105.173 166.893 105.137C168.706 103.786 170.59 102.791 172.794 103.004C174.821 103.146 175.745 105.35 175.354 107.164C175.212 107.981 175.034 108.657 174.43 109.439C173.434 110.932 172.332 112.247 171.408 113.741C170.662 114.949 169.382 117.58 171.337 118.042C171.799 118.113 172.332 118.042 172.866 117.829C173.257 117.616 173.612 117.438 173.932 117.154C174.678 116.62 175.354 116.087 175.958 115.554C176.954 114.629 177.771 113.598 178.66 112.532C179.655 111.323 181.433 113.136 180.402 114.345L180.295 114.381Z" fill="#91B3C7"/>
<path d="M209.66 114.308C209.127 114.984 208.309 115.801 207.527 116.797C204.897 119.748 201.484 122.769 197.716 122.983C195.014 123.125 193.13 121.561 192.526 119.57C192.242 119.037 191.922 118.503 191.175 118.432C190.784 118.432 190.287 118.645 189.896 118.823C188.758 119.57 187.763 120.174 186.803 120.779C183.852 122.521 178.947 124.76 176.992 120.459C175.179 116.37 179.124 111.393 181.826 108.691C184.777 105.811 189.611 102.576 193.984 102.861C196.188 102.932 197.538 104.069 198.072 105.669C198.285 105.989 198.534 106.345 198.996 106.274C199.387 106.274 199.742 106.131 199.991 105.954C201.2 104.958 202.017 103.856 202.764 103.003C203.653 102.185 204.861 102.861 205.323 103.678C205.537 103.963 205.608 104.212 205.608 104.496C206.212 106.096 204.541 107.802 203.191 109.082C201.52 110.682 199.494 112.637 198.285 114.735C197.147 116.69 197.538 119.037 200.24 118.717C201.129 118.432 201.84 118.183 202.373 117.792C203.439 117.188 204.328 116.37 205.252 115.659C206.141 114.735 207.065 113.775 207.883 112.708C208.878 111.5 210.656 113.242 209.625 114.45L209.66 114.308ZM194.303 107.589C192.81 106.06 191.14 106.451 189.256 107.127C186.376 108.193 183.141 110.433 181.648 113.242C180.653 115.268 181.257 117.828 184.137 117.686C185.345 117.686 187.016 116.868 188.118 116.264C189.398 115.588 190.393 114.664 191.353 113.562C191.886 113.099 195.654 108.798 194.303 107.589Z" fill="#91B3C7"/>
<path d="M240.38 114.378C239.846 115.125 239.029 115.907 238.247 116.867C236.22 119.071 233.874 121.311 231.208 122.377C231.208 122.377 230.924 122.591 230.924 122.519C229.644 123.053 228.435 123.053 227.547 122.733C227.476 122.662 227.405 122.662 227.405 122.662C225.378 121.773 225.129 119.426 225.805 117.471C226.089 116.476 226.622 115.445 227.298 114.378C227.831 113.454 228.435 112.494 228.898 111.747C229.111 111.285 229.502 110.823 229.644 110.219C229.964 108.69 228.151 108.192 226.694 108.939C225.272 109.614 224.134 110.965 223.21 112.032C221.468 114.129 217.487 119.498 217.238 120.031C216.42 121.382 215.283 122.662 213.683 122.91C212.474 123.195 211.55 122.519 211.408 120.777C211.408 119.498 214.572 116.191 215.851 114.378C216.74 113.24 219.264 109.756 216.669 108.939C215.069 108.477 213.256 110.29 212.048 111.712C210.981 113.063 209.95 114.2 209.097 115.196C207.96 116.333 206.324 114.663 207.355 113.454C208.244 112.245 210.839 109.01 212.261 107.659C213.79 106.308 215.674 104.779 217.309 104.353C218.837 103.962 220.188 104.353 221.077 106.237C221.219 106.379 221.219 106.557 221.29 106.699C221.681 107.303 221.895 107.908 222.819 107.908C224.027 107.837 225.449 106.415 226.8 105.277C228.755 103.606 231.244 102.504 233.234 102.717C235.261 103.002 236.185 105.064 235.865 106.948C235.652 107.766 235.118 108.619 234.443 109.508C233.519 111.001 232.346 112.281 231.493 113.738C230.675 114.947 229.466 117.649 231.421 118.04C231.884 118.182 232.417 118.04 232.915 117.827C233.412 117.613 233.732 117.436 234.052 117.222C234.727 116.689 235.474 116.085 236.078 115.551C237.003 114.627 237.962 113.667 238.78 112.601C239.775 111.392 241.482 113.134 240.522 114.343L240.38 114.378Z" fill="#91B3C7"/>
<path d="M266.102 98.9849C263.756 99.8737 260.663 99.2694 258.032 98.9138C257.712 98.9138 257.428 98.985 257.108 99.1983C256.717 99.4116 256.219 99.7315 255.828 100.194C252.131 105.633 247.226 113.49 246.764 114.628C246.444 115.623 246.088 116.974 246.479 117.721C247.475 119.463 249.856 118.609 251.527 117.863C251.598 117.792 251.74 117.721 251.811 117.649C252.736 117.045 253.696 116.298 254.513 115.516C255.437 114.628 256.326 113.632 257.073 112.637C258.068 111.357 259.774 113.099 258.743 114.379C258.281 114.983 257.535 115.801 256.646 116.796C254.158 119.747 250.852 122.982 247.226 122.982C243.6 122.982 241.574 118.68 242.32 115.979C243.209 113.277 246.301 108.299 248.292 105.633C248.505 105.313 248.079 105.171 247.83 105.491C245.413 108.299 242.249 112.068 239.903 114.912C238.979 116.192 237.201 114.45 238.161 113.17C240.187 110.681 245.271 105.384 249.714 100.194C249.998 99.7315 250.247 99.1983 250.034 98.7005C249.963 98.4872 249.643 98.3806 249.288 98.3095C248.541 98.2384 247.866 98.2384 247.261 98.1673C246.373 98.1673 245.591 98.1673 244.773 98.2384C244.311 98.2384 244.026 98.0251 243.849 97.7762C242.96 97.1718 243.173 95.5009 244.453 95.572C245.591 95.6431 246.586 95.7142 247.688 95.7853C248.683 95.7853 249.785 95.8564 250.709 95.9986C251.527 95.9986 252.238 95.7853 252.913 95.6076C253.838 95.2876 254.406 94.3988 255.046 93.7944V93.7233C257.001 91.377 258.459 89.4216 259.063 88.3551C260.556 85.9376 262.014 83.3068 264.111 82.7735C265.782 82.2402 266.884 83.0579 266.813 84.871C266.742 86.3642 265.462 87.6796 264.609 88.8884C263.009 90.9859 261.232 92.9768 259.632 95.0743C259.241 95.5365 259.028 95.9986 259.312 96.2119C259.703 96.4252 260.379 96.283 260.734 96.283H260.876C263.08 95.9631 265.569 95.1454 266.848 97.2785C267.239 97.954 266.848 98.7716 266.102 99.0205V98.9849Z" fill="#91B3C7"/>
<path d="M276.049 114.379C275.445 115.125 270.823 121.382 268.051 122.378C268.051 122.378 267.766 122.591 267.766 122.52C266.558 123.124 261.936 123.871 261.119 119.569C260.799 117.898 261.439 116.334 262.114 114.876C262.576 114.059 264.14 111.463 264.745 110.575C265.562 109.366 266.487 108.015 265.42 107.695C264.674 107.482 262.861 109.793 261.119 111.712C259.981 112.921 259.021 114.201 258.026 115.196C257.031 116.334 255.324 114.663 256.284 113.454C257.031 112.566 258.702 110.646 259.981 109.224C260.87 108.299 261.936 107.197 262.327 106.806C266.487 102.718 267.162 102.789 268.975 102.824C270.397 102.896 271.25 105.242 271.001 107.055C270.717 108.726 268.3 112.352 267.375 113.845C266.7 115.054 264.603 118.823 266.984 119.071C269.33 119.285 273.418 113.703 274.307 112.637C275.231 111.428 277.009 113.17 276.049 114.379ZM269.33 95.8209C269.33 95.5009 269.33 95.1454 269.402 94.8254C269.473 94.3632 269.721 93.83 270.219 93.4745C270.61 93.0123 271.037 92.8701 271.499 92.7279C271.961 92.5857 272.565 92.5146 273.099 92.7279C274.094 93.0123 274.912 93.9366 275.125 94.9321C275.409 96.2119 274.983 97.634 273.774 98.2384C272.708 98.7716 271.357 98.6294 270.397 97.8473C270.397 97.7762 270.326 97.7762 270.326 97.7762C270.006 97.5629 269.793 97.3851 269.65 97.0296C269.437 96.6385 269.366 96.2119 269.33 95.8209Z" fill="#91B3C7"/>
<path d="M297.638 114.165C297.105 114.84 296.217 115.658 295.363 116.653C294.972 117.045 293.479 118.538 291.809 119.818C289.676 121.417 287.045 122.911 282.744 122.982C279.651 123.053 276.772 122.662 275.136 120.849C271.902 117.08 273.181 112.778 275.954 109.543C278.229 106.592 281.144 104.424 285.232 103.144C286.37 102.86 288.609 102.611 289.996 102.86C291.737 103.179 292.804 103.926 293.373 105.277C293.906 106.628 293.693 108.228 293.053 109.294C291.915 111.107 290.28 112.245 288.147 112.707C286.796 113.027 286.121 111.214 287.01 110.574C287.081 110.432 287.223 110.361 287.294 110.29C290.244 108.263 288.787 106.664 287.578 106.379C285.303 105.846 281.073 108.939 279.509 110.965C278.833 111.712 277.234 113.916 278.442 116.405C280.717 120.564 288.325 119.178 292.093 116.12C292.413 115.836 292.768 115.587 293.088 115.303C294.084 114.378 294.972 113.418 295.861 112.352C296.856 111.143 298.669 112.885 297.745 114.094L297.638 114.165Z" fill="#91B3C7"/>
<path d="M133.575 54.7241C132.289 55.8818 131.403 56.5942 131.58 57.0394C131.713 57.4847 132.866 57.173 135.349 57.173C136.679 57.173 137.832 57.2621 140.182 57.4402C143.02 57.6628 144.305 57.8854 144.483 57.4402C144.66 56.9059 143.108 56.4161 142.665 54.9022C142 52.7205 143.862 49.4256 145.813 49.2475C146.123 49.2475 146.655 49.2475 147.853 50.138C150.158 51.7855 151.4 53.8781 151.488 54.0117C154.326 58.865 166.653 72.4452 167.938 71.5546C168.426 71.1984 168.116 69.6846 167.938 69.0167C167.495 67.5474 166.653 67.3247 166.165 65.6773C165.854 64.7423 165.766 63.4956 166.12 63.362C166.254 63.2729 166.431 63.362 167.096 63.9854C168.559 65.2766 168.737 65.7218 169.402 65.9445C169.934 66.1226 170.687 66.078 170.954 65.6773C171.131 65.3656 170.998 64.9204 170.865 64.5642C170.288 63.0058 164.081 55.7482 163.371 55.0803C163.061 54.8132 161.598 53.4774 160.09 51.9636C159.514 51.4293 158.804 50.6723 158.982 50.049C159.07 49.7373 159.514 48.9804 159.736 48.5796C159.736 48.5796 159.78 48.4906 159.78 48.4015C159.78 48.4015 159.78 48.1789 159.647 47.9118C159.337 47.422 155.346 44.8395 153.528 42.8359C152.686 41.9009 152.774 41.6337 152.819 41.5447C152.907 41.3666 153.262 41.3666 153.661 41.4111C156.144 41.8118 157.962 44.2607 158.893 43.7264C159.115 43.5928 159.248 43.2811 159.292 43.0585C159.425 41.9009 157.208 40.0753 154.858 39.541C153.838 39.3184 152.508 39.2294 151.355 38.3388C150.779 37.8936 150.779 37.6264 150.823 37.5374C150.912 37.2257 151.577 37.1367 151.887 37.0921C154.193 36.8695 155.435 38.1162 156.188 37.4483C156.543 37.1367 156.676 36.4688 156.499 36.0681C156.366 35.8009 156.188 35.7564 155.701 35.4002C154.947 34.9104 154.947 34.7323 154.548 34.5097C153.883 34.109 153.218 34.198 151.887 34.3316C151.001 34.4206 149.892 34.5542 149.759 35.133C149.759 35.2666 149.759 35.3557 149.892 35.8009C149.981 36.2907 150.025 36.6914 150.025 36.9586C150.025 36.9586 150.025 38.606 150.336 39.4965V39.5855C150.336 39.6746 150.336 39.7191 150.424 39.8082C150.956 41.322 151.4 41.6337 151.843 42.8359C152.02 43.4147 152.065 43.7264 152.109 43.9045C152.154 44.4833 152.109 44.9286 152.065 45.1067C151.932 45.8191 151.754 47.0213 152.065 48.0008C152.42 49.0249 153.306 49.8263 153.306 50.5387C153.306 50.7169 153.306 50.7614 153.218 50.8059C153.04 50.9395 152.641 50.6723 152.375 50.5387C151.089 49.6482 150.912 48.8913 149.848 48.268C149.848 48.268 148.828 47.6891 147.276 47.4665C147.276 47.4665 147.187 47.4665 147.143 47.4665C147.143 47.4665 146.788 47.3775 146.478 47.2884C146.301 47.1994 146.035 47.0658 145.68 46.8432C142.088 44.8395 131.802 39.0958 131.004 29.5674C130.604 24.536 132.954 20.4397 134.107 18.4361C135.216 16.477 136.457 14.3398 138.763 13.4047C139.916 12.915 140.271 13.1821 142.621 12.3807C144.128 11.8464 144.749 11.4456 145.636 11.7573C146.478 12.0245 146.788 12.6478 147.631 12.6033C148.385 12.5588 148.739 11.9354 149.094 12.158C149.626 12.4252 149.582 13.6274 149.582 13.939C149.449 17.5456 145.059 19.2821 143.951 24.1798C143.729 25.0703 143.374 26.8513 144.172 28.4988C145.148 30.5915 147.365 31.2593 147.587 31.3039C150.424 32.1053 151.799 29.79 154.415 30.725C156.366 31.3929 157.031 33.1739 157.563 32.8623C158.405 32.3279 156.809 27.6973 156.632 27.2076C155.745 24.7141 154.681 23.0222 154.37 22.5324C153.306 20.9295 152.198 19.7273 151.355 18.9259C150.868 18.5697 150.513 18.347 150.336 17.9018C150.114 17.2784 150.424 16.6106 150.912 15.631C152.42 12.4252 152.375 12.5588 152.42 12.4697C152.907 11.8018 153.439 11.3566 157.031 8.50697C157.253 8.32887 157.696 7.97267 157.652 7.61647C157.607 7.26027 157.031 7.12669 156.41 6.90406C156.41 6.90406 155.568 6.59238 154.016 5.7464C152.597 4.94495 152.42 3.47562 151.666 2.36249C149.537 -0.798796 143.153 -0.39807 139.029 1.29389C138.231 1.60556 136.369 2.45154 134.329 4.3216C128.476 9.70915 127.19 18.2135 127.368 18.3025C127.456 18.3025 128.033 16.1208 130.117 12.4252C131.358 10.1989 132.644 7.92814 134.95 5.65735C136.457 4.18802 137.743 2.85227 139.96 2.00629C142.665 0.982211 145.015 1.29389 146.611 1.51651C148.252 1.73914 149.36 1.91724 150.424 2.85227C151.666 3.92087 152.774 6.01356 152.154 7.26026C152.02 7.48289 151.843 7.70552 151.355 8.06172C149.804 9.13032 148.784 8.90769 146.7 9.53104C144.926 10.0653 144.926 10.4661 142.842 11.0449C142.177 11.223 141.911 11.2675 140.891 11.5347C139.295 11.9799 138.497 12.2026 138.009 12.4697C136.457 13.2712 136.59 14.2062 134.24 16.566C133.354 17.4565 132.91 17.9018 132.378 18.258C130.516 19.4602 128.875 19.3266 127.722 21.0185C127.589 21.1966 127.545 21.3302 127.501 21.4193C125.417 25.1594 126.259 31.571 126.259 31.571C127.767 38.1162 130.427 41.5892 132.555 43.5483C135.393 46.1753 138.453 47.1548 138.364 49.203C138.275 50.6278 136.768 52.0526 133.753 54.8132M141.468 52.0971C140.891 53.4774 141.246 54.2789 140.714 55.0803C139.783 56.5942 136.945 56.6387 136.457 55.5701C136.058 54.6796 137.3 53.1212 138.985 50.984C139.916 49.8263 140.448 49.3811 141.113 49.3366C141.955 49.2475 142.665 49.7373 142.975 50.049C142.532 50.4052 141.867 51.0731 141.423 52.0971" fill="#91B3C7"/>
<path d="M170.687 18.7056C171.042 18.3939 171.752 17.637 172.151 16.4348C172.55 15.2327 172.372 14.2086 172.239 13.7633C172.372 13.7188 172.505 13.5852 172.638 13.6298C172.771 13.7633 172.372 15.1436 173.037 14.2531C173.392 13.5407 172.993 12.8283 173.126 12.0714C175.166 9.35533 172.816 8.95461 171.042 6.95097C169.668 6.55025 168.337 6.41667 167.096 7.21812C164.48 5.74879 163.904 7.48528 163.017 9.71153C162.618 10.2013 163.593 11.0028 163.105 11.0918C158.627 7.48527 149.759 6.90644 147.409 10.7801C150.823 9.39986 160.489 7.57432 161.066 12.6502C160.489 13.8078 158.272 17.3699 160.356 17.9487C161.598 17.8151 162.13 17.3699 162.396 19.0173C162.839 20.4866 164.569 23.4253 165.766 21.11C165.766 19.8187 167.229 22.1786 168.293 20.1304C169.003 19.5071 169.978 19.7297 170.554 18.7056M165.544 8.86555C165.721 6.37214 166.697 8.28673 165.633 9.35533C165.633 9.26628 165.633 8.99913 165.544 8.86555ZM167.052 8.68745C167.273 8.0641 167.717 9.04366 168.692 7.48528C169.18 7.39622 171.663 7.75242 170.599 8.4203C169.756 8.91008 168.87 8.9546 167.983 8.99913C167.717 9.31081 167.185 9.57796 166.786 9.48891C166.786 9.22176 167.14 8.99913 167.096 8.68745M160.578 16.8356C160.578 14.8765 161.598 16.0786 162.174 14.3867C164.524 10.7356 161.908 17.0137 160.578 16.8356ZM166.83 19.3735C165.987 19.1509 165.854 17.7706 165.189 17.2363C164.879 16.4348 163.992 16.0341 163.726 15.2327C164.037 11.9378 166.387 9.75606 169.845 10.3349C171.84 10.5575 170.909 12.9173 170.377 11.6706C167.717 15.0546 167.229 10.8247 164.968 12.4276C165.101 13.6743 167.85 13.6298 167.672 14.9655C166.653 16.2567 167.185 18.1713 166.83 19.3735ZM170.2 18.0823C169.224 17.637 168.648 16.5684 168.914 15.5443C169.18 14.4312 170.288 13.7188 171.441 13.8969C171.53 14.2086 171.885 15.4108 171.308 16.6575C170.998 17.3699 170.51 17.8596 170.2 18.0823Z" fill="#91B3C7"/>
</svg>
