<svg width="42" height="37" viewBox="0 0 42 37" fill="none" xmlns="http://www.w3.org/2000/svg">
<path d="M9.93158 14.0671C7.68322 12.8305 5.43486 11.6164 3.18651 10.3798C4.35565 9.61535 6.01944 11.3241 7.21107 10.5821C5.54729 8.06399 2.35463 6.84988 0.758301 4.28675C0.668367 4.12937 0.578417 3.90454 0.713318 3.79212C0.780769 3.74716 0.870725 3.72466 0.960659 3.72466C2.19725 3.65721 3.36638 4.30925 4.40063 5.00624C6.33421 6.33277 8.08795 7.9066 9.61683 9.70528C10.5611 10.807 13.2592 13.6849 12.787 15.2363C11.8202 15.1913 10.8085 14.5168 9.95408 14.0671H9.93158Z" fill="#827C71"/>
<path d="M27.5478 0.177833C28.4471 -0.0694958 29.2566 -0.0695123 30.2459 0.24527C31.2802 0.560053 32.2695 1.12218 33.0565 1.88665C33.641 2.42628 34.1357 3.10081 34.2256 3.88777C34.3156 4.60727 34.2256 5.21434 34.6304 5.86639C35.0351 6.51844 35.7321 6.78825 35.957 7.46278C35.957 7.53023 36.0019 7.59769 35.957 7.66515C35.8895 7.75508 35.7546 7.73262 35.6422 7.71013C35.3274 7.64268 35.0351 7.75509 34.7428 7.86751C33.9558 8.15981 33.0115 8.22726 32.6292 9.01421C31.9097 10.4307 31.6399 11.8248 31.3476 13.3537C31.1902 14.1632 31.2352 14.9951 31.0104 15.782C30.7855 16.6364 30.5157 17.4459 30.066 18.1879C28.7844 20.2789 26.6709 21.4706 24.2875 21.8079C24.0177 21.8529 23.7254 21.8529 23.4556 21.8753C22.7811 21.9203 22.084 21.9428 21.4095 21.8528C21.0497 21.8079 20.69 21.7179 20.3302 21.6955C19.9255 21.6955 19.4983 21.7629 19.1161 21.6505C18.7563 21.5606 18.5315 21.2907 18.3066 20.9984C18.5765 20.9984 18.8238 21.0884 19.0936 21.1558C19.4084 21.2458 19.7232 21.2682 20.0379 21.2907C21.0497 21.3807 22.0391 21.4706 23.0733 21.4481C23.3881 21.4481 23.7029 21.4256 24.0177 21.3582C24.5798 21.2458 25.097 21.0209 25.6141 20.7961C26.1987 20.5488 26.7833 20.2789 27.2105 19.8292C27.6602 19.3795 27.7951 18.795 28.1323 18.3003C28.4921 17.7832 28.8743 17.311 29.2116 16.7714C29.5938 16.1418 30.0885 15.4673 30.3134 14.7927C30.853 13.1739 31.3027 11.5325 31.5725 9.86864C31.6624 9.28404 31.7973 8.65447 31.1453 8.40714C30.808 8.27224 30.4033 8.49708 30.066 8.3172C29.7962 8.18229 29.7287 7.84502 29.4814 7.66515C29.0767 7.30539 28.3347 7.05807 27.7951 7.08055C27.2555 7.08055 26.7158 7.37285 26.491 7.86751C26.4235 8.00242 26.4011 8.13731 26.2886 8.24974C26.1312 8.38464 25.8839 8.40713 25.749 8.56452C25.5916 8.7444 25.6815 9.03669 25.749 9.26154C26.2212 10.6106 26.401 12.1621 26.0188 13.5561C25.3892 15.8495 23.8603 16.8388 21.5894 17.1086C20.5101 17.2435 19.4084 17.2885 18.4191 17.7157C18.3516 17.5134 18.554 17.3559 18.7339 17.2435C19.7906 16.5915 20.9148 15.917 22.1515 15.8495C22.4887 15.8495 22.826 15.8495 23.1408 15.7146C23.3656 15.6022 23.568 15.3998 23.7254 15.1974C24.31 14.4105 24.6473 13.3537 24.6248 12.3869C24.6248 11.4425 24.3549 10.5881 24.6697 9.71123C24.9395 8.96924 25.2768 8.29472 25.8165 7.73261C26.8507 6.63087 28.3572 6.04626 29.8637 6.22613C30.4707 6.29359 31.0328 6.56341 31.6174 6.65334C33.3937 6.94564 33.5286 5.23684 33.3488 3.88777C33.2588 3.14578 32.944 2.42626 32.3594 1.95408C31.9772 1.66179 31.505 1.50441 31.0553 1.34701C28.7619 0.582543 26.401 0.627501 24.5124 2.29135C24.1301 2.62862 23.7704 3.03334 23.4331 3.41558C23.1633 3.70787 21.6343 5.82142 21.3196 5.73149C21.0048 5.64155 22.3314 3.41559 22.5112 3.14577C22.6686 2.85347 22.8485 2.58367 23.0733 2.33634C23.3207 2.08901 23.6355 1.93162 23.9502 1.75175C24.8946 1.25709 25.8839 0.784892 26.8957 0.380172C27.1205 0.290234 27.3454 0.22278 27.5702 0.155327L27.5478 0.177833Z" fill="#827C71"/>
<path d="M21.2693 21.6957C21.1794 22.2128 20.8646 22.2803 21.1344 22.7524C21.3592 23.1796 21.4717 23.6518 21.3143 24.1464C21.0894 24.8434 20.3699 25.0682 20.4599 25.3156C20.5273 25.5404 21.1119 25.428 22.4384 25.338C23.5177 25.2706 24.0573 25.2256 24.6868 25.2481C25.8335 25.2706 26.3731 25.428 26.4405 25.2031C26.508 25.0008 26.1033 24.686 25.5187 24.1239C24.7767 23.427 24.1921 22.8199 23.6525 21.943C23.6301 21.8981 23.5851 21.8531 23.5401 21.8306C23.4952 21.8306 23.4502 21.8306 23.4277 21.8306C23.2253 21.8981 23.0005 21.7182 22.7757 21.6957C22.8656 22.4826 24.5744 23.5843 24.1697 24.4612C23.9448 24.9558 22.6183 24.9109 22.1911 24.2139C21.9888 23.8766 21.9888 23.3145 21.8988 22.9323C21.8539 22.73 21.8314 22.5276 21.7639 22.3477C21.719 22.1679 21.674 21.943 21.7639 21.7632C21.674 21.7407 21.5841 21.7632 21.4941 21.7632C21.4042 21.7632 21.3367 21.7182 21.2693 21.6508V21.6957Z" fill="#827C71"/>
<path d="M38.0321 2.38039C37.9197 2.83006 37.7398 3.25726 37.56 3.66197C37.3801 4.06667 37.1778 4.47136 36.9304 4.85358C36.6831 5.2358 36.3908 5.59554 36.166 5.97776C35.9412 6.35998 35.7613 6.78717 35.6039 7.21435C35.4465 7.64154 35.3116 8.06872 35.1542 8.47343C34.9969 8.90061 34.8619 9.30534 34.727 9.73253C34.5697 10.1372 34.4347 10.5644 34.3223 10.9916C34.1874 11.4188 34.075 11.846 33.9626 12.2956H33.8952C33.7603 11.3738 33.8952 10.4295 34.1425 9.55265C34.2774 9.10298 34.4572 8.69828 34.6596 8.2711C34.8619 7.86639 35.0868 7.46168 35.3341 7.07946C35.5814 6.69724 35.8062 6.31503 36.0086 5.91032C36.2109 5.50562 36.3234 5.05593 36.5032 4.65122C36.6831 4.24652 36.908 3.84183 37.1553 3.45961C37.4026 3.07739 37.6499 2.69516 37.9647 2.35791H38.0096L38.0321 2.38039Z" fill="#827C71"/>
<path d="M37.8562 4.60843C38.5981 4.45104 39.3626 4.47352 40.1045 4.60843C40.2169 4.60843 40.3518 4.67589 40.3518 4.78831C40.3518 4.85576 40.3069 4.90071 40.2844 4.94568C40.037 5.21548 39.6549 5.35037 39.2951 5.44031C38.823 5.57521 36.8669 6.31717 36.5071 5.8675C35.9675 5.21548 37.5414 4.69835 37.8786 4.6309L37.8562 4.60843Z" fill="#827C71"/>
<path d="M15.5167 19.6055C15.5167 19.6055 15.5617 19.6505 15.5841 19.673C15.6291 19.7404 15.6741 19.8079 15.719 19.8529C15.7865 19.9428 15.8989 19.9878 15.9663 20.0777C16.0338 20.1227 16.0788 20.1901 16.1237 20.2351C16.1912 20.2801 16.2586 20.325 16.3486 20.3475C16.4385 20.3925 16.7982 20.5948 16.8657 20.4824C16.9331 20.37 16.5734 20.1452 16.5284 20.0777C16.2586 19.7854 15.9888 19.4706 15.7415 19.1559C15.2469 18.5488 14.7972 17.8968 14.3475 17.2448C14.1227 16.9075 13.8754 16.5703 13.8079 16.1656C13.763 15.9632 13.7854 15.7384 13.7405 15.536C13.5831 14.8615 13.3133 15.2437 13.3807 15.7384C13.4482 16.233 13.6281 16.7277 13.8079 17.1773C14.0103 17.6495 14.2801 18.1216 14.5949 18.5263C14.9096 18.931 14.9096 18.931 15.0895 19.1334C15.2244 19.2908 15.4268 19.4257 15.5617 19.5831L15.5167 19.6055Z" fill="#827C71"/>
<path d="M23.2389 25.3368C21.8449 25.7416 20.4283 26.0563 19.1242 26.551C18.4722 26.7983 17.8651 27.0682 17.303 27.4279C16.7409 27.7877 16.2463 28.1924 15.8865 28.687C15.7066 28.9344 15.5492 29.1817 15.4593 29.429C15.4368 29.4965 15.4143 29.5639 15.3918 29.6314C15.3918 29.6988 15.3469 29.7888 15.3469 29.8113C15.3469 29.8337 15.3469 29.8112 15.3244 29.7213C15.3019 29.6539 15.2569 29.6314 15.2569 29.6314C15.2569 29.6314 15.3694 29.6988 15.4818 29.7438C15.5492 29.7438 15.6167 29.7888 15.6841 29.7888H15.7966L15.9315 29.8337L16.9882 29.9911C18.4047 30.1935 19.8438 30.3509 21.2828 30.2834C22.0023 30.2609 22.7218 30.1935 23.4188 30.0811C24.1383 29.9687 24.8353 29.8337 25.5323 29.6539C26.9264 29.2941 28.2529 28.8444 29.5795 28.3273C30.9061 27.8326 32.1653 27.2255 33.3569 26.5285C33.964 26.1688 34.5261 25.7865 35.0882 25.4043C35.2231 25.3144 35.3805 25.2019 35.5154 25.112L35.9202 24.7972C36.0326 24.7073 36.1225 24.6398 36.1225 24.5949C36.1225 24.5949 36.1225 24.5949 36.1225 24.6848C36.1225 24.7523 36.1225 24.9096 36.19 24.9771L36.7071 25.3593C35.9202 25.157 35.1332 24.9771 34.3238 24.8197C33.5143 24.6623 32.7049 24.5499 31.8954 24.46C31.086 24.37 30.2541 24.3026 29.4221 24.2801C28.5902 24.2351 27.7583 24.2351 26.9039 24.2576V24.1002C27.6909 23.8529 28.5228 23.673 29.3772 23.5381C30.2316 23.4032 31.086 23.3357 31.9404 23.3132C32.7948 23.3132 33.6717 23.3132 34.5261 23.4032C35.3805 23.4706 36.2574 23.6055 37.0893 23.8079L37.4266 23.8753L37.6065 24.1901C37.629 24.2576 37.674 24.3026 37.6964 24.37C37.7189 24.4375 37.7414 24.5049 37.7639 24.5724C37.7864 24.7073 37.7864 24.8647 37.7639 24.9996C37.7189 25.2469 37.629 25.4268 37.539 25.5617C37.3592 25.8315 37.1793 25.9889 36.9994 26.1463C36.7071 26.3711 36.3923 26.6185 36.1 26.8208C35.4929 27.248 34.8409 27.6303 34.1664 27.99C33.5143 28.3273 32.8173 28.6421 32.1203 28.9119C31.4233 29.1817 30.7262 29.429 30.0292 29.6314C28.6127 30.0361 27.1512 30.2834 25.6897 30.4408C24.2282 30.5982 22.7892 30.6882 21.3277 30.8006C19.8887 30.8905 18.4272 31.0254 16.9657 31.0704H16.4261H15.8865H15.7516H15.5942C15.4818 31.0704 15.3918 31.0704 15.2794 31.0479C15.0546 31.0029 14.8072 30.958 14.5149 30.7556C14.3575 30.6432 14.2002 30.4858 14.1102 30.2609C14.0203 30.0361 14.0203 29.7888 14.0428 29.6539C14.0428 29.4965 14.0877 29.4065 14.1102 29.2941C14.1327 29.1817 14.1777 29.0693 14.2002 28.9793C14.3576 28.5746 14.5824 28.1924 14.8522 27.8551C15.3693 27.2031 16.0439 26.7084 16.7184 26.3486C17.4154 25.9664 18.1574 25.7191 18.8769 25.5617C20.3609 25.2244 21.8224 25.1794 23.2839 25.2244V25.3818L23.2389 25.3368Z" fill="#827C71"/>
<path d="M19.3097 27.6531C18.4553 27.5182 17.6234 27.3158 16.7915 27.2259C15.982 27.1359 15.1726 27.1135 14.4306 27.2708C13.6886 27.4282 12.9916 27.743 12.5194 28.2152C12.452 28.2826 12.407 28.3501 12.3395 28.3951C12.2946 28.4625 12.2721 28.485 12.2946 28.4625C12.2946 28.4175 12.2946 28.3501 12.2946 28.3051C12.2946 28.2602 12.2946 28.2826 12.2946 28.3051C12.2946 28.3276 12.362 28.3726 12.4295 28.4176L12.5194 28.485L12.6543 28.5749L13.1715 28.9122C14.543 29.7666 16.0944 30.5311 17.7358 30.9358C18.5677 31.1382 19.3997 31.2506 20.2541 31.3405C21.1085 31.4305 21.9629 31.4305 22.8173 31.453H25.3805C26.2125 31.453 27.0219 31.453 27.8313 31.3181C29.4277 31.0932 31.0016 30.5536 32.5756 30.0139C33.3625 29.7441 34.1045 29.4518 34.7566 29.0696C35.0938 28.8672 35.3861 28.6649 35.656 28.4176C35.9033 28.1927 36.1956 27.8329 36.2405 27.698C36.2405 27.6755 36.2405 27.6531 36.263 27.6531C36.263 27.6531 36.263 27.6306 36.263 27.5631C36.2181 27.4732 36.0607 27.2933 35.9258 27.1584C35.6559 26.8661 35.3636 26.5963 35.0264 26.349C34.3743 25.8543 33.6548 25.4496 32.8454 25.1348V24.9774C33.7448 25.0224 34.6217 25.2697 35.4311 25.652C35.8358 25.8543 36.2181 26.0792 36.6003 26.3715C36.7802 26.5289 36.96 26.6188 37.1624 26.8661C37.2748 26.9785 37.3647 27.1359 37.4322 27.3608C37.4997 27.5631 37.4997 27.7655 37.4547 27.9454C37.3873 28.3051 37.2298 28.5525 37.0949 28.7773C36.96 28.9797 36.8251 29.182 36.6452 29.3844C36.3305 29.7666 35.9482 30.0814 35.566 30.3512C34.779 30.8908 33.9471 31.2731 33.1152 31.5879C32.3058 31.8802 31.4514 32.1725 30.5969 32.3748C29.7425 32.5772 28.8431 32.7346 27.9438 32.802C27.0444 32.8695 26.145 32.847 25.2681 32.7346C24.8409 32.6896 24.4137 32.6222 23.9865 32.5547L22.7049 32.3299L17.6009 31.453C16.7465 31.2956 15.8921 31.1382 15.0377 30.9358C14.1833 30.7334 13.3289 30.4636 12.5194 30.0814C12.3171 29.9915 12.1147 29.879 11.9123 29.7666L11.7549 29.6767C11.6875 29.6317 11.6425 29.6092 11.5751 29.5643C11.4626 29.4743 11.3502 29.3844 11.2153 29.2495C11.1029 29.1146 10.968 28.9572 10.9005 28.7098C10.8331 28.4625 10.8331 28.1702 10.9455 27.9229C11.0354 27.698 11.1704 27.5631 11.2603 27.4507C11.3502 27.3608 11.4402 27.2708 11.5301 27.1809C12.2946 26.4839 13.2839 26.1466 14.2282 26.0567C14.7004 26.0117 15.1726 26.0342 15.6448 26.0792C16.0945 26.1466 16.5441 26.259 16.9713 26.3939C17.8257 26.6862 18.5902 27.0685 19.3547 27.4957L19.3097 27.6531Z" fill="#827C71"/>
<path d="M19.7489 28.2605C18.962 28.8676 18.3549 29.4971 17.8827 30.2166C17.6579 30.5763 17.4556 30.9361 17.2982 31.3183C17.2307 31.5207 17.1408 31.7005 17.0733 31.9029C17.0509 31.9928 17.0059 32.1052 16.9834 32.1951C16.9834 32.1951 16.9834 32.1951 16.9384 32.0602C16.9384 31.9928 16.871 31.9029 16.8035 31.8579C16.7361 31.8129 16.7136 31.7904 16.6911 31.7904C16.6686 31.7904 16.7586 31.8354 16.7811 31.8354L16.9384 31.9029C17.0284 31.9478 17.1408 31.9928 17.2532 32.0378C17.4556 32.1277 17.6804 32.2176 17.9052 32.2851C18.3549 32.42 18.8046 32.5099 19.2767 32.4874C19.7489 32.4874 20.221 32.42 20.6707 32.3076C21.1204 32.1951 21.5476 31.9928 21.9748 31.8129C22.4019 31.6106 22.8066 31.4082 23.2338 31.2059C23.661 31.0035 24.0657 30.8012 24.4704 30.5763C24.8751 30.3515 25.2798 30.1267 25.707 29.9018C25.8194 29.8569 25.9094 29.7894 26.0218 29.7445C26.1342 29.6995 26.2691 29.632 26.3815 29.5646C26.6289 29.4522 26.8762 29.3622 27.101 29.2948C28.0678 28.98 29.0121 28.8001 29.9339 28.6203C30.8783 28.4404 31.7776 28.283 32.6994 27.9907L32.7893 28.1256C32.4521 28.5078 32.0249 28.8001 31.5977 29.0474C31.1705 29.2948 30.7209 29.5421 30.2937 29.7219C29.4168 30.1266 28.495 30.4639 27.6856 30.8236C27.4832 30.9136 27.2809 31.0035 27.0785 31.0935L26.4715 31.4082C26.0443 31.633 25.5721 31.8129 25.1225 31.9928C24.6503 32.1727 24.2006 32.33 23.7285 32.4874C23.2563 32.6223 22.7617 32.7123 22.267 32.7797C21.7724 32.8472 21.2778 32.8697 20.7831 32.8921L19.3217 32.9596C18.8271 32.9596 18.3324 33.0046 17.8378 33.027C17.5905 33.027 17.3207 33.027 17.0733 33.027C16.9384 33.027 16.826 33.0271 16.6911 33.0046H16.4888C16.4213 32.9596 16.3764 32.9821 16.2415 32.9146C16.174 32.8921 16.0841 32.8472 15.9716 32.7572C15.8592 32.6673 15.7693 32.5324 15.7468 32.42C15.6793 32.1727 15.7018 32.0153 15.7018 31.9253C15.7018 31.768 15.7468 31.6555 15.7693 31.5206C15.8143 31.3857 15.8368 31.2508 15.8817 31.1384C15.9267 31.0035 15.9716 30.8911 16.0391 30.7562C16.2639 30.2616 16.5787 29.8119 16.9609 29.4297C17.7029 28.6652 18.6922 28.1481 19.7264 28.1256L19.7714 28.283L19.7489 28.2605Z" fill="#827C71"/>
<path d="M19.1709 29.5394C20.43 29.6743 21.5991 29.7642 22.7907 29.7642H23.2404H23.6901C23.9824 29.7642 24.2747 29.7417 24.567 29.7192C24.8592 29.7192 25.1515 29.6743 25.4438 29.6518C25.7361 29.6518 26.0284 29.6068 26.3207 29.6068C27.4898 29.5393 28.7264 29.4719 29.8955 29.1122C31.0422 28.7524 32.1439 28.1454 33.0657 27.4034C33.5379 27.0212 33.9651 26.6165 34.3698 26.2118C34.7745 25.7846 35.1342 25.3574 35.4265 24.9078C35.7413 24.4356 35.9661 23.941 36.146 23.4463C36.2359 23.199 36.3034 22.9517 36.3483 22.6819V22.547C36.3708 22.547 36.3483 22.6144 36.4383 22.7718C36.4832 22.8618 36.5507 22.9517 36.6406 22.9967C36.7081 23.0416 36.7755 23.0641 36.798 23.0641C36.843 23.0641 36.7305 23.0641 36.6631 23.0416C35.4715 22.7943 34.3473 22.5695 33.2006 22.547C32.0765 22.547 30.9298 22.7268 29.8955 23.4013L29.7831 23.2889C30.1204 22.7493 30.6375 22.2997 31.2221 21.9849C31.8067 21.6476 32.4362 21.4453 33.1107 21.3329C34.4372 21.108 35.7413 21.2429 36.9554 21.4228C37.0453 21.4228 37.0678 21.4228 37.2702 21.4902C37.3601 21.5127 37.495 21.5577 37.6299 21.6701C37.7648 21.7601 37.8997 21.9174 37.9671 22.0748C38.102 22.3896 38.102 22.6144 38.0796 22.7493C38.0796 22.8168 38.0796 22.8842 38.0571 22.9292V23.0641C37.9447 23.4013 37.8547 23.7386 37.7198 24.0758C37.45 24.7279 37.0903 25.3125 36.6631 25.8296C36.2359 26.3467 35.7638 26.8188 35.2242 27.2011C34.707 27.5833 34.1225 27.8981 33.5604 28.1679C32.9758 28.4377 32.4137 28.685 31.8291 28.9098C31.5368 29.0222 31.2671 29.1571 30.9748 29.2695C30.8399 29.337 30.6825 29.382 30.5476 29.4494C30.4127 29.4944 30.2553 29.5619 30.1204 29.6293C28.9737 30.1015 27.8271 30.6635 26.568 30.9558C26.2532 31.0233 25.9384 31.0907 25.6237 31.1132C25.3089 31.1357 24.9941 31.1807 24.6569 31.1582C24.3421 31.1582 24.0273 31.1582 23.6901 31.1357C23.3753 31.1132 23.0606 31.0907 22.7458 31.0233C21.4867 30.8209 20.2501 30.4162 19.1709 29.7192L19.2159 29.5618L19.1709 29.5394Z" fill="#827C71"/>
<path d="M15.3718 29.0936C14.8546 29.5882 14.405 30.1279 14.0677 30.7349C13.9103 31.0272 13.7529 31.3195 13.6405 31.6343C13.573 31.7917 13.528 31.9491 13.4831 32.1065C13.4606 32.1964 13.4381 32.2639 13.4606 32.2414C13.4606 32.2414 13.4606 32.1964 13.4606 32.1515C13.4606 32.1065 13.4381 32.0615 13.4156 32.0615C13.4156 32.0166 13.4156 32.0615 13.4606 32.0615C13.528 32.1065 13.5955 32.129 13.663 32.1739C13.7979 32.2414 13.9553 32.3089 14.0902 32.3538C14.3825 32.4663 14.6972 32.5562 15.0345 32.6461C15.709 32.8035 16.3836 32.9609 17.0581 33.0958C18.4072 33.3881 19.8462 33.6579 21.2627 33.5905C21.9822 33.5455 22.6792 33.4331 23.3762 33.2532C24.0733 33.0733 24.7478 32.826 25.3998 32.5562C26.0744 32.2864 26.7264 31.9941 27.401 31.7243C28.0755 31.4544 28.75 31.2071 29.4471 30.9598C30.8411 30.4876 32.2576 30.1279 33.6067 29.7456C34.2812 29.5658 34.9558 29.3634 35.5853 29.1385C35.7427 29.0936 35.9001 29.0261 36.0575 28.9587L36.1474 28.9137H36.2149C36.2599 28.8687 36.2823 28.8463 36.2823 28.8687C36.2823 28.8687 36.2374 28.9362 36.2374 29.0036C36.2374 29.0711 36.2599 29.161 36.2823 29.161C36.2823 29.161 36.2823 29.1386 36.2374 29.0936C36.1924 29.0486 36.1249 28.9812 36.08 28.9137C35.8326 28.6664 35.5853 28.4191 35.338 28.1942C35.0907 27.9694 34.8209 27.7445 34.5286 27.5646C33.9665 27.1824 33.3369 26.8901 32.6399 26.7102V26.5528C33.3819 26.4629 34.1688 26.5753 34.9108 26.8451C35.2705 26.98 35.6303 27.1599 35.9451 27.3623C36.2823 27.5646 36.5971 27.767 36.8894 27.9918C36.9569 28.0593 37.0243 28.1043 37.1368 28.1717C37.2267 28.2617 37.3391 28.3516 37.429 28.509C37.5415 28.6664 37.6314 28.9137 37.5864 29.1835C37.5864 29.4533 37.4515 29.6782 37.3166 29.8131C37.2042 29.9705 37.0693 30.0604 36.9569 30.1279C36.9119 30.1728 36.8445 30.1953 36.7995 30.2403L36.6646 30.3302C36.5072 30.4202 36.3273 30.5101 36.1474 30.6C35.4504 30.9373 34.7534 31.2071 34.0339 31.4095C33.3144 31.6343 32.6174 31.8142 31.8979 31.9716C31.2008 32.129 30.5038 32.2864 29.8068 32.4438C29.1098 32.6237 28.4353 32.8035 27.7158 32.9834C27.0187 33.1633 26.2992 33.2982 25.5797 33.4331C24.1407 33.7254 22.6792 33.9502 21.2402 34.1301C19.8012 34.31 18.3172 34.5348 16.8108 34.4449C16.0688 34.3999 15.3043 34.265 14.5848 34.0402C14.2251 33.9502 13.8428 33.7928 13.4831 33.6354C13.3032 33.5455 13.1233 33.4556 12.9435 33.3432C12.8535 33.2982 12.7636 33.2307 12.6736 33.1633C12.5837 33.0958 12.4488 33.0059 12.3139 32.826C12.2464 32.7361 12.2015 32.6236 12.1565 32.4887C12.134 32.3538 12.134 32.2414 12.1565 32.129C12.2015 31.9266 12.2464 31.8367 12.2914 31.7467C12.3814 31.5669 12.4713 31.387 12.5612 31.2071C12.7636 30.8699 13.0109 30.5551 13.2582 30.2628C13.7979 29.7007 14.4499 29.251 15.1469 29.0036L15.2369 29.1385L15.3718 29.0936Z" fill="#827C71"/>
<path d="M24.7998 33.0473C25.6317 32.8449 26.4411 32.7775 27.2281 32.7325C27.6328 32.7325 28.015 32.71 28.4197 32.6875C28.8244 32.6875 29.2066 32.6875 29.6113 32.755C30.3983 32.8449 31.2076 33.0922 32.0171 33.0922C32.8265 33.0922 33.6134 32.9348 34.3778 32.6875C34.76 32.5526 35.1198 32.4177 35.4571 32.2603C35.7943 32.103 36.1091 31.9456 36.3564 31.7657C36.6262 31.5634 36.851 31.3385 37.0084 31.1137C37.1658 30.8664 37.2782 30.6415 37.3682 30.3717C37.5255 29.8321 37.503 29.1351 37.3232 28.4606C37.2332 28.1009 37.1208 27.7412 36.9859 27.3814C36.851 26.9992 36.6937 26.617 36.5588 26.2123L36.6936 26.1223C37.0534 26.3696 37.3681 26.6395 37.6604 26.9317C37.9752 27.224 38.245 27.5838 38.4699 27.966C38.6947 28.3482 38.897 28.7979 38.987 29.27C39.0994 29.7422 39.0994 30.2593 38.987 30.7764C38.8745 31.2935 38.6272 31.7882 38.2675 32.1704C37.9302 32.5526 37.503 32.8449 37.0983 33.0697C36.6711 33.2946 36.2215 33.4295 35.7718 33.4969C35.3222 33.5644 34.895 33.5644 34.4678 33.5644C33.6359 33.5194 32.8265 33.5194 32.0171 33.6093C31.2076 33.6993 30.3983 33.9916 29.5888 34.0815C29.1841 34.1265 28.757 34.1489 28.3523 34.104C27.9475 34.0815 27.5428 34.0365 27.1381 33.9691C26.3287 33.8342 25.5193 33.6094 24.7549 33.2271V33.0697L24.7998 33.0473Z" fill="#827C71"/>
<path d="M17.148 32.7832C16.9231 32.7832 16.6983 32.7607 16.4734 32.7832C16.2486 32.7832 16.0462 32.8281 15.8439 32.8506C15.4391 32.9406 15.0569 33.0755 14.7196 33.2778L14.967 32.5134C15.5516 33.3003 16.3835 33.8624 17.2829 34.2896C17.7326 34.492 18.2048 34.6944 18.6994 34.8742C19.1941 35.0541 19.7112 35.234 20.2283 35.3689C20.4982 35.4364 20.768 35.5038 21.0378 35.5488C21.3076 35.5937 21.5774 35.6612 21.8472 35.6837C22.1171 35.7061 22.3869 35.7286 22.6792 35.7511C22.949 35.7511 23.2188 35.7511 23.5111 35.7511C24.6128 35.7286 25.6921 35.5263 26.7713 35.3014C27.8506 35.0766 28.9074 34.9192 29.9641 34.6494C31.0209 34.3796 32.0552 34.0873 33.0895 33.8175C33.3593 33.75 33.6066 33.6826 33.8764 33.5926C34.1462 33.5252 34.3936 33.4577 34.6634 33.3678C35.1805 33.2104 35.7202 33.0755 36.1698 32.8956C36.642 32.7157 37.0467 32.4909 37.3615 32.1536C37.6538 31.7939 37.8787 31.3217 37.7662 30.7821L37.9012 30.7146C38.081 30.9394 38.1934 31.2767 38.1934 31.5915C38.1934 31.9063 38.1485 32.2435 38.0136 32.5358C37.7438 33.1429 37.2266 33.6151 36.732 33.9299C36.2148 34.2672 35.6977 34.492 35.1805 34.7393C34.6634 34.9642 34.1462 35.189 33.6066 35.3914C32.5274 35.7736 31.4256 36.0434 30.3014 36.2233C29.1772 36.3807 28.053 36.5156 26.9062 36.4931C25.782 36.4931 24.6353 36.3582 23.5336 36.2908C22.4094 36.2233 21.3076 36.1783 20.1834 36.1783C19.6213 36.1783 19.0367 36.1783 18.4521 36.0659C17.8675 35.976 17.2829 35.8186 16.7432 35.5712C16.2036 35.3014 15.6865 34.9642 15.2143 34.5594C14.7646 34.1322 14.3824 33.6376 14.1126 33.0755L13.8428 32.4909L14.3824 32.311C14.877 32.1536 15.4167 32.1086 15.9113 32.1761C16.1587 32.1986 16.406 32.266 16.6308 32.356C16.8557 32.4459 17.0805 32.5359 17.2829 32.6708L17.2379 32.8281L17.148 32.7832Z" fill="#827C71"/>
<path d="M41.0012 20.7468C40.4166 21.3314 39.9894 22.0284 39.6747 22.7928C39.5173 23.175 39.3599 23.5573 39.27 23.962C39.18 24.3667 39.1126 24.7714 39.0901 25.1761C39.0451 26.008 39.0226 26.8174 39.0226 27.6493C39.0226 28.4812 39.0676 29.2906 39.1126 30.1225C38.9327 29.3131 38.8653 28.4812 38.8428 27.6493C38.8428 26.8174 38.8652 25.9855 39.0001 25.1761C39.0676 24.7714 39.135 24.3667 39.225 23.962C39.3149 23.5573 39.4049 23.1525 39.5398 22.7478C39.832 21.9609 40.3267 21.2415 41.0012 20.7468Z" fill="#827C71"/>
<path d="M8.72074 26.1691C9.05799 26.259 9.37276 26.4164 9.64256 26.6187C9.77746 26.7312 9.91238 26.8436 10.0248 26.956C10.1597 27.0684 10.2946 27.1583 10.4295 27.2708C10.7218 27.4731 10.9691 27.7204 11.1939 27.9678C11.4188 28.2376 11.5986 28.5748 11.5986 28.9121C11.4637 28.5973 11.2614 28.35 11.0366 28.1026C10.9241 27.9677 10.8117 27.8553 10.6993 27.7204L10.362 27.3382C10.2496 27.2033 10.1147 27.0909 9.97981 27.0009C9.84491 26.911 9.68752 26.8211 9.53014 26.7536C9.23785 26.5738 8.96807 26.3939 8.67578 26.1915L8.72074 26.1691Z" fill="#827C71"/>
<path d="M37.8274 26.5518C38.4569 26.2596 39.064 26.1472 39.671 26.0572C39.8284 26.0572 40.0083 26.0122 40.2331 26.0572C40.4579 26.0797 40.7502 26.1472 40.9976 26.372C41.1325 26.4844 41.2449 26.6193 41.3123 26.7542C41.3798 26.8891 41.4247 27.024 41.4472 27.1589C41.4922 27.4062 41.4697 27.631 41.4472 27.8109C41.3798 28.1482 41.2449 28.4854 41.0875 28.7777C40.9301 29.07 40.7727 29.3623 40.6378 29.6546C40.368 30.2392 40.1432 30.8237 39.8959 31.4308C39.7834 31.7456 39.626 32.0378 39.4687 32.3301C39.2888 32.6224 39.0864 32.8697 38.8616 33.1171C38.4344 33.6117 37.9623 34.0838 37.4227 34.4436C36.8831 34.8033 36.2985 35.0731 35.6914 35.298C35.0844 35.5003 34.4548 35.6577 33.8028 35.7027L33.7354 35.5677C34.1625 35.0506 34.6122 34.6234 35.0844 34.2187C35.534 33.814 36.0062 33.4318 36.4559 33.0721C36.9056 32.7123 37.4002 32.3976 37.8499 32.0378L38.5244 31.4982C38.6368 31.4083 38.7492 31.3184 38.8616 31.2284C38.974 31.1385 39.0864 31.0486 39.1989 30.9361C39.4237 30.7338 39.626 30.509 39.8059 30.2616C39.9633 30.0143 40.0982 29.7445 40.1881 29.4522C40.368 28.8677 40.2331 28.2381 40.1881 27.6985C40.1881 27.5861 40.1432 27.4737 40.1207 27.4287C40.0982 27.3837 40.1207 27.4062 40.1207 27.4287C40.1432 27.4287 40.1207 27.4287 40.0533 27.3838C39.9633 27.3613 39.8509 27.3388 39.6935 27.3163C39.0864 27.2039 38.4794 27.069 37.8499 26.7542V26.5968L37.8274 26.5518Z" fill="#827C71"/>
</svg>
