<svg width="76" height="75" viewBox="0 0 76 75" fill="none" xmlns="http://www.w3.org/2000/svg">
<g filter="url(#filter0_d_639_58)">
<path d="M70.1078 4.30225C65.9078 8.00224 62.9078 8.10225 59.2078 10.3022C53.2078 13.8022 54.8078 16.9023 49.8078 19.5023C44.4078 22.3023 42.0078 18.8023 34.8078 20.7023C34.2078 20.9023 23.1078 23.9023 20.4078 32.2023C18.2078 39.0023 23.7078 42.6022 21.0078 47.9022C18.5078 52.7022 12.6078 52.6023 8.00781 58.7023C7.00781 60.0023 5.50782 62.1022 5.10782 64.9022C4.90782 66.4022 5.1078 67.0023 4.90781 68.3023C4.40781 70.8023 2.70781 71.6023 1.00781 72.8023C1.00781 48.6023 1.00781 25.2023 1.00781 1.00226C25.0078 1.00226 49.0078 1.20227 73.0078 1.20227C72.4078 2.00227 71.4078 3.10227 70.1078 4.20227L70.1078 4.30225Z" fill="#B7CEDA"/>
</g>
<defs>
<filter id="filter0_d_639_58" x="0.807812" y="0.802197" width="74.4" height="74.2" filterUnits="userSpaceOnUse" color-interpolation-filters="sRGB">
<feFlood flood-opacity="0" result="BackgroundImageFix"/>
<feColorMatrix in="SourceAlpha" type="matrix" values="0 0 0 0 0 0 0 0 0 0 0 0 0 0 0 0 0 0 127 0" result="hardAlpha"/>
<feOffset dx="1" dy="1"/>
<feGaussianBlur stdDeviation="0.6"/>
<feComposite in2="hardAlpha" operator="out"/>
<feColorMatrix type="matrix" values="0 0 0 0 0 0 0 0 0 0 0 0 0 0 0 0 0 0 0.37 0"/>
<feBlend mode="normal" in2="BackgroundImageFix" result="effect1_dropShadow_639_58"/>
<feBlend mode="normal" in="SourceGraphic" in2="effect1_dropShadow_639_58" result="shape"/>
</filter>
</defs>
</svg>
