<svg width="48" height="48" viewBox="0 0 48 48" fill="none" xmlns="http://www.w3.org/2000/svg">
<path d="M40.679 22.6661C40.8782 21.6155 42.0073 19.6455 42.2398 19.0546C42.6715 18.2009 42.8708 17.1503 43.3026 16.3623C44.1328 14.852 45.8265 13.9655 47.0221 12.7507C48.0184 11.8314 47.2877 11.6672 46.3247 11.503C43.6679 11.0762 43.4021 10.1241 41.7749 8.25261C38.6863 5.00217 33.6052 6.57814 30.6828 9.43458C30.2842 9.79574 28.6569 11.5359 28.989 12.0284C29.0886 12.0284 29.2879 11.9299 29.5536 11.7C30.1182 11.2075 30.5831 10.5509 31.1809 10.0584C32.775 8.90926 34.9004 7.76012 36.7602 7.46462C38.0221 7.36612 39.7158 7.89145 40.7786 8.7451C41.7749 9.69724 43.8339 11.7329 42.0738 12.8492C40.9114 13.6372 39.3837 13.9327 38.0886 14.458C36.9926 14.9176 35.9631 15.6728 34.834 16.0339C33.4392 16.5593 31.6458 16.2638 30.716 17.6427C29.3211 19.8097 29.7861 22.6661 28.9226 24.9973C28.5241 26.2121 27.9927 27.0986 27.2289 28.2149C26.2326 29.6595 24.6718 31.7608 23.7087 32.7786C23.3766 33.1726 22.978 33.4353 22.5131 33.6322C21.8157 33.9277 21.0518 34.2889 20.4873 34.8799C19.7899 35.6022 19.3249 36.62 18.8268 37.2438C18.6607 37.4737 18.1626 37.9662 18.063 37.4737C17.9965 36.7185 18.4283 35.9305 18.5611 35.2082C18.8268 34.3546 18.3286 33.6651 17.9301 32.9428C17.6312 32.3846 17.5316 31.7608 17.598 31.1041C17.6644 30.152 18.0297 29.2983 18.1294 28.4119C18.1958 27.6567 17.9301 26.9016 17.8637 26.1136C17.6976 25.0629 18.2954 23.7168 17.6644 22.896C16.8342 21.9438 14.908 21.9767 13.7124 21.911C12.9818 21.911 11.753 22.0095 11.5206 22.699C11.3213 23.1586 11.6202 23.7168 12.0519 23.9795C12.8158 24.5376 13.8785 24.3734 14.9412 24.3078C15.4062 24.3078 15.9043 24.2421 16.336 24.3406C16.9006 24.4719 17.2327 24.8659 17.1663 25.1614C17.0999 25.5883 16.1036 25.5226 15.6386 25.4241C14.277 25.2928 11.5538 25.2599 10.8564 26.6389C10.5575 27.2627 10.9892 28.0179 11.6534 28.182C13.1147 28.576 14.8416 27.0329 16.2696 26.6061C17.2327 26.2777 17.6644 26.7702 17.0002 27.4269C16.2696 28.1164 15.1405 28.6417 14.277 29.1998C12.8158 30.0863 10.79 31.3996 11.2549 32.9756C12.3176 34.7157 14.6423 30.7758 15.705 30.349C16.9006 29.758 16.5685 30.8743 16.1368 31.3996C15.0076 32.9428 12.5169 35.5365 12.0519 36.7842C11.9523 37.014 11.9855 37.1782 12.1184 37.3095C12.4173 37.5722 13.0483 37.7692 13.0815 38.2945C13.1479 38.8855 12.7825 39.5093 12.5501 40.0346C11.9523 41.2166 11.1221 42.0702 10.4247 43.2522C9.89331 44.2372 9.2955 45.2878 9.06303 46.4042C8.83056 47.5861 9.92651 47.6846 10.6239 47.1265C11.2881 46.634 11.7198 45.7803 12.1848 45.058C13.3803 43.1537 12.9154 45.4192 13.3471 46.1415C13.9449 46.9951 14.7752 46.043 15.3397 45.4192C17.9965 42.3657 20.0556 38.3602 22.3803 35.3067C24.5057 32.4174 27.1625 29.7908 28.989 26.6717C30.2842 24.5048 30.0186 21.8782 30.716 19.4814C30.882 18.7591 30.9816 18.0367 31.3802 17.6756C31.8783 17.2159 32.6421 17.3144 33.4724 17.1831C34.1366 17.0846 34.7676 16.9533 35.4318 17.0518C37.1919 17.5114 37.6568 18.1024 39.2509 16.7891C40.4465 15.8041 40.9446 16.1981 41.0775 17.6756C41.476 20.9917 39.1513 24.0123 36.9927 26.4419C36.2952 27.2299 36.3948 28.2149 35.9631 29.1342C35.631 29.8237 35.2989 30.546 34.9004 31.2026C33.0074 34.3217 29.454 36.3902 25.8009 36.4887" fill="#817C73"/>
<path d="M0.298298 0.306858C-0.797632 1.75149 1.42744 2.67081 2.12485 3.75429C2.52337 4.24678 2.78902 4.83776 3.0547 5.39592C3.32038 6.05257 3.7521 6.57789 4.25025 7.10322C6.47532 9.20451 10.1616 12.8489 13.2169 13.1116C14.3129 13.0459 13.3166 11.9296 12.9181 11.5028C12.3867 10.9118 11.955 10.3865 11.5232 9.7955C9.39781 6.67639 7.37202 3.65579 4.15065 1.3575C3.15435 0.668016 1.39423 -0.579624 0.298298 0.306858Z" fill="#817C73"/>
<path d="M9.19571 5.06798C9.09608 5.36348 9.32855 5.75747 9.52781 6.02013C11.0223 8.02292 12.8488 9.73022 15.4724 9.66455C16.1366 9.66455 17.1661 9.33623 16.668 8.54824C16.1698 7.82592 15.3063 7.36627 14.5425 6.90661C13.9447 6.54545 13.3137 6.24996 12.716 5.92163C11.9189 5.52764 9.95953 4.1815 9.22891 5.06798H9.19571Z" fill="#817C73"/>
<path d="M30.2831 20.8921C30.1834 20.4325 30.0174 20.0385 29.8181 19.6773C29.6189 19.349 29.4196 18.9878 29.0875 18.758C28.7554 18.4953 28.3569 18.3312 28.0912 18.0357C27.8255 17.7402 27.6595 17.3462 27.5931 16.9522C27.5267 16.5582 27.3938 16.1314 27.3274 15.8359C27.2942 15.5404 27.3274 15.3434 27.3274 15.0479C27.3274 14.7524 27.427 14.4241 27.5267 14.0629C27.6263 13.7018 27.7259 13.3078 27.7923 12.8153L27.6927 12.7168C27.261 12.881 26.8957 13.1436 26.5636 13.4719C26.2315 13.8003 25.9658 14.1943 25.8329 14.7196C25.7001 15.2121 25.7998 15.8359 26.0322 16.2956C26.2647 16.7552 26.5636 17.0179 26.8957 17.3134C27.2278 17.6089 27.5267 17.9044 27.6927 18.2655C27.892 18.6267 27.9584 19.0863 28.1244 19.4803C28.3237 19.8743 28.6226 20.137 28.9547 20.3996C29.2868 20.6623 29.6853 20.8593 30.1502 20.9578L30.2499 20.8593L30.2831 20.8921Z" fill="#817C73"/>
</svg>
