<svg width="130" height="169" viewBox="0 0 130 169" fill="none" xmlns="http://www.w3.org/2000/svg">
<path d="M44.6995 62.1002C45.2994 61.9002 46.3995 61.7002 46.7995 61.7002C41.8995 56.9002 33.3994 61.2002 44.6995 62.1002Z" fill="#EDEBE2"/>
<path d="M86.4996 40.9002C84.3996 35.7002 69.8995 32.9002 67.3995 35.2002C65.2995 46.7002 81.9996 51.7002 86.4996 40.9002Z" fill="#EDEBE2"/>
<path d="M38.2998 47.9002C45.1998 52.2002 40.8998 54.3002 43.6998 55.3002C45.1998 55.2002 46.0998 56.8002 47.3998 56.7002C47.8998 54.9002 46.5998 52.5002 45.1998 51.2002C45.7998 41.1002 38.6998 30.1002 38.2998 47.8002" fill="#EDEBE2"/>
<path d="M77.1998 79.7999C74.5998 77.7999 71.8998 76.0999 68.8998 74.6999C67.4998 74.0999 62.4999 72.4999 61.4999 74.0999C61.1999 74.4999 61.2999 75.0999 61.4999 75.5999C62.2999 77.1999 64.2998 77.6999 65.8998 78.5999C68.8998 80.2999 70.6998 83.9999 73.8998 85.1999C75.3998 85.7999 80.8999 86.4999 80.5999 83.7999C80.4999 82.1999 78.1999 80.5999 77.0999 79.6999L77.1998 79.7999Z" fill="#EDEBE2"/>
<path d="M103.8 0H25.5C11.4 0 0 11.4 0 25.5V143C0 157.1 11.4 168.5 25.5 168.5H103.8C117.9 168.5 129.3 157.1 129.3 143V25.5C129.3 11.4 117.9 0 103.8 0ZM90.7 75.9C84.8999 76.4 85.4 81.1 85 85.5C84.2 92.8 74.3 88 70.5 86.3C68.5 85.4 66.6 84.5 64.7 83.6C63.6 83.1 62.6 82.4 61.4 82.1C60.2 81.8 59.3 81.2 58.3 81.1C56.6 81.1 55.1 82.3 54 83.6C43.7 95.4 45.7 114 48.6 128.3C49.7 133.9 51.4 139.2 53.2 144.6C51.7999 144.2 50.6 142.3 49.6 141.2C48.4 140 47.9 138.3 47.2 136.8C45.6 132.9 44.5 128.9 43.7 124.8C43.4 123 43.1 121.2 42.9 119.4C41 103.1 44.1 85.9 54.6 73C54.2 70.9 50.6 75.2 48.4 73.5C38.2 69.6 30.3 66.9 37.1 55C33.4 49.3 34 43.2 35.8 37C54.1 15.9 46 26.5 69 27.8C73.9 31.8 63.1 27.2 66.8 31.6C71 28.9 87.5 34.2 89.4 38.8C94.1 41.3 93.1 45.8 95.9 49C105.2 53.9 94.6 60.4 100.4 60.5C111 66 97.6 74 90.8 76" fill="#EDEBE2"/>
<path d="M61.1004 65C61.0004 62.4 61.8004 59.9 62.7004 57.6C63.6004 55.2 64.6004 52.8 64.9004 50.3C65.2004 47.8 64.7004 45 63.0004 43.1C61.4004 41.4 59.2004 41.1 57.3004 40.1C59.6004 39.1 59.1004 37.2 56.7004 36.9C54.2004 36.6 52.4004 38.5 51.6004 40.7C50.6004 43.5 49.7004 46.3 49.6004 49.3C49.6004 53 48.8004 57.4 50.8004 60.8C51.3004 61.6 51.8004 62.2 52.4004 62.9C54.5004 65.3 56.8004 67.6 59.6004 69.2C62.8004 71.2 66.6004 72.2 70.2004 73C73.6004 73.8 77.2004 74.4 80.6004 73.6C83.6004 72.9 86.3004 71 88.2004 68.6C90.2004 66.2 91.5004 63.3 92.3004 60.4C92.5004 59.7 92.7004 58.9 92.6004 58.2C92.6004 57.4 92.0004 57.1 91.7004 56.5C91.5004 56.1 91.5004 55.6 91.2004 55.3C90.9004 55 90.1004 55.1 89.7004 55C86.3004 54.6 82.9004 53.8 79.7004 52.5C78.8004 52.1 77.9004 51.8 77.0004 51.6C75.1004 51.3 73.9004 52.2 72.2004 52.7C71.4004 52.9 70.7004 52.7 69.9004 53.2C68.4004 54 67.6004 55.7 66.8004 57.2C65.5004 59.9 64.2004 64.8 60.6004 65.2" fill="#EDEBE2"/>
<path d="M48.5004 34.6998C47.5004 37.1998 47.6004 39.8998 47.8004 42.5998C48.2004 41.0998 48.6004 39.5998 49.0004 37.9998C49.2004 37.2998 49.4004 36.5998 49.8004 35.9998C50.1004 35.5998 50.6004 35.1998 51.1004 34.8998C52.8004 33.7998 54.4004 32.6998 56.1004 31.5998C57.6004 30.5998 55.8004 30.5998 55.1004 30.4998C54.4004 30.3998 53.8004 29.9998 52.9004 30.1998C50.9004 30.6998 49.2004 32.7998 48.5004 34.5998V34.6998Z" fill="#EDEBE2"/>
</svg>
