<svg width="80" height="105" viewBox="0 0 80 105" fill="none" xmlns="http://www.w3.org/2000/svg">
<path d="M27.1219 88.237L26.3789 88.1132C26.6266 88.1132 26.8124 88.1751 27.1219 88.237Z" fill="#E1DBCB"/>
<path d="M27.1191 88.2366L27.9241 88.3604C27.8002 88.3604 27.6764 88.3604 27.6145 88.3604C27.4907 88.3604 27.3049 88.3604 27.181 88.3604L27.1191 88.2366Z" fill="#E1DBCB"/>
<path d="M36.7793 59.877C36.7793 59.877 36.7793 59.9389 36.7793 60.0008L36.9031 59.877H36.7793Z" fill="#E1DBCB"/>
<path d="M51.8265 77.1528C51.6407 76.7813 51.1454 76.7194 50.7119 76.6575C49.5974 76.4717 48.5447 75.9764 48.5447 77.5863C48.6067 80.3107 49.102 82.9733 49.0401 85.6977C49.0401 85.9454 49.0401 86.1931 48.8543 86.3788C48.5447 86.8123 47.9255 86.6884 47.4302 86.5646C47.7398 83.159 47.6779 79.6915 44.7677 77.3386C43.9008 76.5956 42.8482 76.1002 41.9813 75.3572C40.7429 74.2426 39.938 72.6946 39.4426 71.1466C39.2568 70.4036 39.071 69.6606 38.9472 68.9175C38.8853 68.2983 38.9472 67.1838 38.6996 66.6265C38.2042 65.6977 36.4085 66.1312 35.3559 66.1312C33.5602 66.1312 32.3837 67.8649 31.5169 69.2891C31.3311 69.5987 31.1454 69.9083 30.8977 70.094C30.5262 70.4036 30.0927 70.5275 29.7831 70.899C29.4735 71.2705 29.2878 71.7039 29.0401 72.0754C28.4828 73.0042 27.8017 73.933 27.554 74.9857C27.0587 76.8432 26.8729 78.1436 25.5726 79.6915C23.9008 81.611 20.5571 84.8928 22.7862 87.6172L22.972 87.803C23.0958 87.803 23.2816 87.803 23.4673 87.803H23.7769C23.8389 87.803 23.9008 87.803 23.9627 87.803H24.1485L24.7677 87.9268C24.7677 87.9268 25.4488 88.0507 26.1299 88.1126H26.1918C25.6345 87.9887 25.2011 87.803 24.8296 87.1838C24.5819 86.6884 24.458 86.1312 24.3961 85.5739C24.3961 84.707 24.5819 83.7782 25.1392 83.0971C25.263 82.9114 25.3869 82.7875 25.5726 82.7256C25.7584 82.6637 26.0061 82.7256 26.1299 82.8494C26.2537 82.9733 26.2537 83.159 26.3157 83.2829C26.4395 84.0878 26.5014 84.8928 26.4395 85.7597C26.4395 85.9454 26.4395 86.1931 26.4395 86.3788C26.4395 86.5646 26.6252 86.7504 26.6872 86.8742C26.9348 87.4315 27.0587 88.0507 27.6159 88.3603C30.9596 88.8556 34.3033 89.2271 37.6469 89.1652C40.2475 89.4129 42.9101 89.2891 45.5726 89.1652C46.6872 89.1033 47.7398 88.8556 48.8543 88.7937C49.6593 88.7937 50.4643 88.2364 50.8977 87.4934C51.0215 87.3076 51.1454 87.06 51.2073 86.8123C51.2073 86.8123 51.2073 86.6884 51.2073 86.6265C52.1361 83.7782 51.7646 80.6822 51.5788 77.772C51.5788 77.5863 51.5788 77.3386 51.455 77.1528H51.8265Z" fill="#E1DBCB"/>
<path d="M57.709 0.0012207H22.291C9.96904 0.0012207 0 9.97026 0 22.2922V81.9826C0 94.3046 9.96904 104.274 22.291 104.274H57.709C70.031 104.274 80 94.3046 80 81.9826V22.2922C80 9.97026 70.031 0.0012207 57.709 0.0012207ZM32.4458 49.9703C33.808 51.9517 35.2322 53.9331 36.5325 55.7907C35.2941 55.2953 32.1981 51.0229 32.4458 49.9703ZM33.4984 48.9176C34.4272 50.4037 35.356 51.8278 36.2848 53.252C35.356 52.9424 33.4365 49.9703 33.4984 48.9176ZM33.6842 54.4285C34.6749 55.543 35.6037 56.5956 36.5944 57.6483C35.7895 57.7721 33.8699 55.6669 33.6842 54.4285ZM36.7802 58.7628C36.7802 58.8247 36.7802 58.8867 36.7802 58.9486C36.5944 58.9486 36.3467 59.0105 36.161 58.9486C35.7894 58.7628 35.2322 58.639 35.2941 57.896C35.8514 58.2056 36.2848 58.4532 36.7802 58.7628ZM53.9319 84.6452C53.9319 85.574 53.9319 86.5647 53.4365 87.4316C53.1269 88.0508 52.5696 88.4842 51.8885 88.7319C51.5789 88.8557 51.2074 88.8557 50.8978 88.8557C50.5882 88.8557 50.2167 88.8557 49.9071 88.8557C48.6068 88.9795 47.3065 89.2891 45.9443 89.4749C43.2817 89.7845 40.6192 90.0322 37.8947 89.9702C34.3653 90.2798 30.8359 89.9703 27.3065 89.4749L24.7059 89.1653H24.0867C24.0867 89.1034 23.9629 89.0415 23.9629 89.0415H23.839H23.5294C23.2817 89.0415 23.0341 89.0415 22.7245 88.9795C22.5387 88.9795 22.3529 88.9176 22.1052 88.67L21.8576 88.4223C21.6718 88.2365 21.548 87.9888 21.4241 87.7412C21.3003 87.4316 21.2384 87.1839 21.2384 86.9362C21.2384 86.4408 21.2384 86.0074 21.1765 85.574C21.1765 84.7071 21.1765 83.8402 21.1765 82.9114C21.1765 81.1158 21.1765 79.382 21.3622 77.5863C21.3622 77.3387 21.3622 77.091 21.4861 76.8433C21.548 76.5956 21.6718 76.286 21.8576 76.1003C22.1672 75.6668 22.5387 75.3573 22.9102 75.0477C23.6532 74.4285 24.3963 73.995 25.0774 73.4997C25.387 73.252 25.6966 72.9424 26.0062 72.6947C26.3158 72.3851 26.6254 72.0755 26.9969 71.7659C27.6161 71.1467 28.2972 70.5895 28.7926 69.9703C29.3498 69.3511 29.8452 68.608 30.031 67.9269C30.1548 67.5554 30.2167 67.122 30.2786 66.7504C30.2786 66.4408 30.2786 66.1932 30.2167 65.8836H29.4118C29.0402 65.8836 28.6068 65.8836 28.1734 65.7597C27.7399 65.6978 27.3684 65.574 26.9969 65.4501C26.8111 65.4501 26.5635 65.3263 26.3158 65.0786C26.13 64.8309 26.0681 64.5213 26.0681 64.3356L26.1919 61.9826C26.1919 61.6111 26.1919 61.1158 26.5015 60.7442C26.8111 60.3727 27.2446 60.187 27.678 60.0631C28.1115 60.0012 28.483 60.0631 28.9164 60.0631C29.2879 60.0631 29.6594 60.0631 30.031 60.0631C30.4025 60.0631 30.8359 60.0012 31.2074 60.0012H32.3839C33.9319 60.0631 35.4799 60.0012 37.0279 60.0012H37.1517C37.3994 60.1251 37.6471 60.0631 37.8947 60.1251C38.1424 60.1251 38.3901 60.1251 38.6377 60.0012H38.8235H44.4582C44.8916 59.8774 45.387 59.8774 45.8204 59.8774C46.2539 59.8774 46.7492 59.8155 47.2446 59.7535C47.7399 59.7535 48.2353 59.7535 48.7926 59.9393C48.9164 59.9393 49.0402 60.0631 49.1641 60.1251C49.2879 60.187 49.4737 60.3108 49.5975 60.4966C49.7213 60.6823 49.7213 60.8681 49.7833 60.9919V61.3634C49.8452 61.3634 50.1548 62.7257 50.1548 62.7257C50.2167 63.1591 50.3405 63.6545 50.3405 64.2117C50.3405 64.4594 50.3406 64.769 50.1548 65.0786C50.031 65.3882 49.8452 65.6359 49.5975 65.8216C49.3498 66.0074 49.0402 66.1312 48.7926 66.1932C48.6687 66.1932 48.483 66.1932 48.3591 66.2551C48.1114 66.2551 48.0495 66.2551 47.9257 66.2551L46.5635 66.0693C46.3158 66.0693 46.13 66.0693 45.9443 66.0074C45.8824 66.3789 45.8204 66.7504 45.8823 67.06C45.8823 67.4935 46.0062 67.9269 46.13 68.2984C46.7492 69.9083 47.9876 71.2706 49.3498 72.5089C49.6594 72.8186 50.0309 73.1282 50.4025 73.4377C50.774 73.7473 51.1455 73.995 51.517 74.3665C51.8885 74.7381 52.1362 74.9857 52.5077 75.2953C52.8792 75.6049 53.2507 75.9145 53.4984 76.4099C53.7461 76.9052 53.808 77.4006 53.87 77.834C53.87 78.3294 53.9319 78.7628 53.9319 79.2582C53.9319 80.187 53.9938 81.1158 53.9938 82.0446C53.9938 82.9734 53.9938 83.9021 53.9938 84.8309L53.9319 84.6452ZM65.8204 11.704C65.6966 12.3232 65.6347 12.9424 65.5108 13.6235C65.2631 14.8619 65.0774 16.1622 64.7059 17.4006C64.3963 18.639 63.839 19.8155 63.0959 20.8681C62.6625 21.5492 62.1053 22.1684 61.6099 22.7876C61.4241 23.0353 61.1145 23.3449 61.0526 23.7164C61.0526 23.9641 61.0526 24.2117 61.0526 24.4594C61.0526 25.2644 60.8049 26.1932 60.6192 26.9981C60.3715 27.8031 60.1238 28.608 59.8762 29.413C59.6285 30.156 59.257 30.8371 58.6378 31.3325C57.8947 31.8898 57.3374 32.6947 56.5325 33.1282C55.9752 33.3758 55.4799 33.7473 54.9226 34.0569C54.6749 34.2427 54.4272 34.3665 54.1796 34.5523C54.0557 34.6142 53.5603 34.8619 53.808 35.0477C53.808 35.0477 53.9319 35.0477 54.0557 35.0477C54.3034 35.0477 54.4892 34.8619 54.6749 34.8C54.9226 34.6761 55.1083 34.6142 55.356 34.4904C55.6037 34.3665 55.9133 34.1808 56.161 34.0569C56.3468 33.9331 56.5325 33.7473 56.7802 33.8093H56.8421C56.8421 33.8093 56.8421 33.8093 56.8421 33.8712C56.8421 33.9331 56.7802 33.995 56.7802 34.0569C56.7802 34.1189 56.7802 34.2427 56.7802 34.3046C56.7802 34.4285 56.7802 34.6142 56.7802 34.7381C56.6563 35.3573 56.2848 35.7907 55.9133 36.286C55.5418 36.8433 55.1703 37.4006 54.8607 37.9579C54.5511 38.3913 54.2415 38.8247 53.9319 39.1963C53.6223 39.5678 53.1888 39.8155 52.8792 40.1251C52.7554 40.187 52.5697 40.2489 52.6316 40.4347C52.6316 41.1777 52.4458 41.9207 51.8885 42.4161C51.5789 42.6638 51.2693 42.7257 50.9597 42.9114C50.5882 43.0972 50.3406 43.4068 50.1548 43.7783C49.969 44.0879 49.8452 44.4594 49.6594 44.8309C49.1022 45.9455 48.421 46.8124 47.3684 47.5554C46.7492 47.9888 46.13 48.4842 45.4489 48.9176C45.0774 49.1653 44.7059 49.4749 44.3343 49.6607C43.7771 49.9703 43.1579 50.156 42.4768 50.156C42.4768 50.156 42.4148 50.156 42.3529 50.156C42.3529 50.156 42.3529 50.0322 42.3529 49.9703C42.4148 49.8464 42.6006 49.7226 42.7245 49.6607C42.8483 49.5987 43.0341 49.5368 43.1579 49.4749C43.2817 49.4749 43.4056 49.3511 43.5294 49.2891C43.9628 49.0415 44.3963 48.7938 44.8297 48.5461C45.2631 48.2984 45.6346 48.1127 46.0681 47.865C47.2446 47.122 48.2972 46.1932 48.8545 44.8929C48.7925 44.8309 48.7306 44.769 48.6687 44.7071C48.483 44.5213 46.5015 45.6359 46.0062 45.6359C46.13 45.3263 46.4396 45.2025 46.6873 45.0167C47.9257 44.2737 49.0402 43.4687 50.1548 42.5399C50.4025 42.2922 50.774 42.0446 50.9597 41.735C51.1455 41.4254 51.2074 41.0539 51.1455 40.6823C51.1455 40.6204 51.1455 40.5585 51.0836 40.4966C51.0836 40.4966 51.0217 40.4966 50.9597 40.4966C50.8359 40.4966 50.7121 40.4966 50.5882 40.5585C50.4644 40.5585 50.3405 40.5585 50.2167 40.5585C50.0309 40.5585 49.969 40.3108 50.0309 40.1251C50.0309 40.1251 50.0929 40.0631 50.1548 40.0012C50.2786 40.0012 50.3406 40.0012 50.4644 40.0012C50.5882 40.0012 50.7121 39.9393 50.8359 39.8774C51.0836 39.8155 51.3313 39.7535 51.5789 39.6916C52.0743 39.5678 52.5696 39.382 53.0031 39.2582C53.1888 39.2582 53.3127 39.1343 53.4365 39.0105C54.1796 38.1436 55.1703 37.2768 55.2322 36.0384C55.2322 35.9145 55.2322 35.7907 55.1703 35.7288C55.1703 35.7288 55.0464 35.7288 54.9845 35.7288C54.1176 35.7288 53.3746 36.1622 52.5077 36.286C52.3839 36.286 52.2601 36.286 52.1362 36.286C51.9505 36.286 51.8266 36.348 51.6408 36.348C51.6408 36.348 51.517 36.348 51.4551 36.348C50.9597 36.1622 52.4458 35.1096 52.6316 34.8619C53.3127 34.1189 53.9319 33.3758 54.613 32.6328C54.9226 32.3232 55.2322 31.9517 55.5418 31.704C56.0372 31.2706 56.6563 30.961 57.1517 30.4656C57.5851 29.9703 57.8947 29.413 58.1424 28.7938C58.5139 28.0508 58.8854 27.2458 59.1331 26.4408C59.3808 25.7597 59.4427 25.2644 59.3808 24.5833C59.3808 23.9021 59.8761 23.7783 60.4334 23.4068C60.9907 23.0353 61.4861 22.6638 61.9195 22.1684C63.7771 20.3108 65.0155 17.6483 64.7059 15.0477C64.582 15.0477 64.4582 15.1715 64.3343 15.2334C63.6532 15.8526 62.9102 16.4718 62.3529 17.2148C61.7337 17.9579 61.1146 18.7009 60.4954 19.4439C59.257 20.93 57.9566 22.4161 56.7182 23.9021C54.6749 26.3789 52.5696 28.8557 50.4025 31.2706C49.7213 32.0136 48.9783 32.5709 48.1734 33.1901C47.4922 33.7473 46.873 34.6761 46.3777 35.4192C45.8204 36.286 45.4489 37.4006 45.0155 38.3294C44.8916 38.639 44.7059 38.9486 44.5201 39.2582C44.3343 39.5678 44.1486 39.8155 43.9628 40.0631C43.2817 40.93 42.6006 41.735 42.1672 42.7876C41.7956 43.7783 41.486 44.769 41.2384 45.7597C40.743 47.8031 40.4953 49.8464 40.1857 51.9517C40.1238 52.6328 40 53.3139 40.1857 53.9331C41.3622 53.252 42.6006 52.6328 43.7151 51.9517C44.2724 51.5802 44.7059 50.961 45.2012 50.4656C45.2012 50.4037 45.0774 50.3418 45.0155 50.2179C44.4582 50.4656 43.9628 50.7752 43.4056 51.0229C42.9102 51.2086 42.4768 51.704 41.8576 51.3944C43.5913 51.0229 44.8297 49.8464 46.3777 49.0415C46.3777 49.1653 46.3158 49.3511 46.1919 49.413C45.6966 50.156 45.1393 50.899 44.582 51.5802C44.3963 51.8278 44.0867 52.1374 43.839 52.1994C42.4768 52.509 41.486 53.3758 40.3096 54.0569H40.1857C40.3096 54.3046 40.4334 54.5523 40.6811 54.6761C41.1765 54.9238 41.4241 54.4285 41.7957 54.2427C42.291 53.9331 42.9102 53.6854 43.4675 53.4377C43.5913 53.4377 43.7152 53.3139 43.839 53.3758C43.839 53.4997 42.9721 53.9331 42.9102 53.995C42.5387 54.1808 42.2291 54.3665 41.8576 54.6142C41.1765 54.9857 40.5573 55.4192 39.9381 55.9145C39.6285 56.1622 39.3808 56.4718 39.1331 56.7195C39.0093 56.8433 38.8854 57.0291 38.7616 57.2148C38.6378 57.4006 38.6378 57.4625 38.7616 57.7102C39.0093 57.7102 39.195 57.5244 39.3808 57.3387C39.6285 57.091 39.9381 56.8433 40.2477 56.6576C40.4334 56.5337 40.5573 56.4718 40.743 56.348C40.8669 56.348 40.9288 56.2241 41.0526 56.2241C40.6192 56.7195 40 56.9672 39.5046 57.4006C38.8854 57.9579 38.5139 58.8247 37.9566 59.382C37.8947 59.4439 37.8328 58.1436 37.8328 58.0817C37.8328 57.7721 37.6471 57.4625 37.5851 57.1529C37.3994 56.1622 37.3994 54.9857 37.3374 53.995C37.3374 51.8278 37.4613 49.6607 38.0186 47.4935C38.5758 45.2644 39.6285 43.1591 40.6192 41.0538C41.1145 40.0631 41.6099 39.1343 42.1672 38.2056C43.5913 35.8526 45.5108 33.8093 47.4923 31.8278C47.9257 31.3944 48.3591 31.0229 48.7926 30.6514C49.226 30.2799 49.6594 29.8464 50.0928 29.413C51.0216 28.3604 52.0124 27.3077 53.0031 26.2551C54.3653 24.769 55.7895 23.221 57.1517 21.735C58.3901 20.3727 59.6285 19.0105 60.9288 17.5864C61.548 16.9052 62.1672 16.2241 62.7864 15.543C63.0959 15.2334 63.2817 14.9238 62.9721 14.4904C62.8483 14.3046 62.6006 14.1808 62.3529 14.2427C62.2291 14.2427 62.1672 14.2427 62.0433 14.3665C61.2384 14.7381 60.4953 15.3573 59.8142 15.8526C58.8235 16.5956 57.8328 17.5244 57.2755 18.639C57.1517 18.8867 57.0279 19.1963 56.8421 19.382C56.4087 19.8774 55.8514 19.8155 55.7275 19.1343C55.7275 18.9486 55.7275 18.7009 55.7275 18.5152C55.7275 18.3294 55.7275 18.0817 55.6037 17.9579C55.5418 17.896 55.4798 17.834 55.356 17.834C55.0464 17.7721 54.7368 17.834 54.4892 18.0198C54.1796 18.2675 53.808 18.3294 53.4984 18.5152C53.1888 18.7009 53.1269 19.2582 53.065 19.5678C52.8793 20.3727 52.7554 21.1777 52.5696 21.9207C52.4458 22.2922 52.3839 22.6018 52.26 22.9114C52.0743 23.283 51.8885 23.5926 51.7028 23.9641C51.5789 24.2117 51.517 24.3975 51.2693 24.3975C51.0217 23.4687 51.8266 21.673 50.4644 21.735C49.5356 21.735 48.1734 23.1591 47.4923 23.7164C45.3251 25.5121 43.7151 27.9269 42.9721 30.6514C42.7244 31.5182 42.5387 32.447 42.7245 33.3139C42.9102 33.995 43.3437 34.3665 43.034 35.1096C43.034 35.1715 42.9721 35.2953 42.9102 35.3573C42.9102 35.4192 42.8483 35.543 42.7864 35.543H42.6625C42.1052 34.7381 41.9814 33.7473 41.6718 32.8186C41.4861 32.3232 41.2384 31.8898 41.1145 31.3944C40.9907 31.0229 40.8049 30.6514 40.3096 30.6514C39.7523 30.6514 39.3189 31.1467 39.0712 31.6421C38.2662 33.0043 37.709 34.4285 37.3994 35.9145C37.2755 36.5956 37.0279 37.2768 37.3374 37.896C37.647 38.5771 38.0186 39.3201 38.3281 40.0631C38.3901 40.2489 38.3281 40.4347 38.3281 40.6204C38.1424 40.6204 37.8947 40.6204 37.7709 40.4966C37.4613 40.2489 37.2136 39.9393 36.904 39.6297C36.7182 39.4439 36.4086 39.382 36.161 39.6297C36.0371 39.7535 35.9133 39.9393 35.8514 40.187C35.7275 40.5585 35.6037 40.9919 35.418 41.3634C35.356 41.6111 35.2322 41.9207 35.1703 42.1684C34.9226 43.3449 35.2322 44.5833 35.5418 45.7597C35.6037 46.0693 35.6656 46.4408 35.8514 46.7504C35.9752 46.9981 36.161 47.1839 36.2848 47.3696C36.5944 47.865 36.9659 48.4223 36.7802 49.0415C36.7802 49.1034 36.7802 49.1653 36.6563 49.2272H36.5325C36.4087 49.1653 36.2848 49.1034 36.161 48.9795C35.4799 48.1746 34.9226 47.3077 34.3653 46.4408C34.2415 46.1932 34.0557 46.0074 33.808 45.6978C33.808 47.6792 34.9226 48.9176 35.8514 50.4037C35.1703 50.2179 34.7368 49.4749 34.3653 48.9176C33.9319 48.1746 33.6223 47.2458 33.4365 46.3789C33.4365 46.1312 33.3746 45.8216 33.4365 45.574C33.4365 45.3882 33.4365 44.9548 33.6223 44.8309C33.7461 44.9548 33.8699 45.0786 33.9938 45.2025C34.1176 45.3263 34.2415 45.4501 34.3034 45.6359C34.4272 45.7597 34.4891 45.8836 34.613 46.0074C34.613 46.0693 34.7368 46.1313 34.8607 46.1313C34.8607 45.8217 34.5511 45.574 34.3653 45.3263C34.1796 45.0786 34.0557 44.8309 33.9319 44.5213C33.6842 43.9021 33.808 43.221 34.1176 42.6018C34.7987 41.1777 35.1083 39.5678 35.5418 38.0198C35.5418 37.896 35.6037 37.834 35.7276 37.5864C36.2229 38.3294 36.5944 39.0105 37.0279 39.6916C37.0898 39.6916 37.1517 39.6916 37.2136 39.6297C37.1517 39.382 37.0898 39.1343 36.966 38.9486C35.9133 37.2148 36.161 35.6049 36.966 33.8712C37.9567 31.8898 39.3808 30.2179 40.6811 28.4842C40.6811 28.4223 40.8669 28.3604 40.9907 28.2984C41.1146 28.9176 41.2384 29.5368 41.3003 30.0941C41.3622 30.0941 41.486 30.0941 41.548 30.0941C41.548 29.6607 41.548 29.2891 41.548 28.8557C41.548 27.9269 41.7956 27.06 42.4768 26.317C43.839 24.8929 45.0155 23.221 46.5015 21.9207C47.9257 20.6823 49.6594 19.8155 51.2074 18.7628C51.2694 18.7628 51.3932 18.7628 51.517 18.7009C51.517 19.8774 51.6409 20.9919 51.7028 22.1065C51.7028 22.1065 51.7647 22.1065 51.8266 22.1065C51.8266 21.9207 51.9504 21.673 51.9504 21.4873C51.9504 20.8062 52.0124 20.1251 52.0124 19.4439C52.0124 18.7628 52.26 18.3294 52.8792 18.1436C53.4365 18.0198 53.9319 17.7102 54.3653 17.3387C54.7368 16.9672 55.1083 16.348 55.6656 16.2861C55.6656 16.2861 55.6656 16.2861 55.7275 16.2861C55.7275 16.2861 55.7275 16.286 55.7275 16.348C55.9133 16.7814 55.7275 17.2768 55.9752 17.7102C55.9752 17.7102 55.9752 17.7721 56.0371 17.7721C56.0371 17.7721 56.161 17.7721 56.2229 17.7102C56.5944 17.3387 56.6563 16.7814 56.9659 16.348C57.1517 16.1003 57.4613 15.7907 57.7709 15.7907C59.257 15.7288 60.4334 14.9857 61.4861 14.1808C63.034 13.0043 64.3963 11.6421 65.6966 10.2179C65.6966 10.2179 65.6966 10.2179 65.7585 10.2179C65.7585 10.2179 65.8204 10.2799 65.8204 10.3418C65.8204 10.8991 65.7585 11.3944 65.6347 11.9517L65.8204 11.704Z" fill="#E1DBCB"/>
</svg>
