<svg width="87" height="113" viewBox="0 0 87 113" fill="none" xmlns="http://www.w3.org/2000/svg">
<path d="M62.4424 44.4984C61.7776 42.6439 60.847 40.9882 59.9164 39.3324C58.9857 37.6767 57.7227 36.4183 56.3932 35.0275C56.2603 34.8288 56.0609 34.6964 55.8614 34.5639C55.2632 34.299 54.5984 34.8951 54.1996 35.3587C52.7372 37.0144 51.2747 38.6701 49.8123 40.3259C49.8123 40.3921 49.6794 40.4583 49.6129 40.5246C49.2805 40.657 49.0146 40.1934 49.0811 39.8623C49.1476 39.3324 49.5464 38.9351 49.8788 38.5377C50.8094 37.5442 51.74 36.5508 52.6042 35.6236C52.8701 35.2924 53.2025 34.8288 52.8701 34.4977C52.3383 33.9016 51.3412 35.2262 51.0088 35.5574C50.3441 36.2196 49.6794 36.8819 49.0146 37.5442C47.6851 38.8688 46.3557 40.1934 45.0262 41.4518C44.8268 41.6505 44.5609 41.9154 44.295 42.0479C44.0291 42.1803 43.6967 42.2466 43.3643 42.1803C43.4308 41.7167 43.8296 41.3856 44.162 41.1206C45.8239 39.6636 47.3528 38.1403 49.0146 36.6833C49.7458 36.021 50.5435 35.3587 51.2747 34.6964C51.8065 34.2328 52.8036 33.5705 52.9366 32.8419C53.136 31.5173 50.477 30.7888 49.4799 30.4577C47.8846 29.9278 46.2227 29.5967 44.5609 29.5967C42.899 29.5967 43.8961 29.5967 43.5638 29.5967C43.2314 29.5967 42.899 29.5967 42.5666 29.5967C39.5753 29.5967 36.6504 30.5901 34.1244 32.1796C31.5984 33.7692 29.4048 36.021 27.6765 38.5377C24.2863 43.6374 22.6244 49.7967 22.425 55.9561C22.3585 62.1155 23.821 68.4735 27.2776 73.6394C29.0059 76.2224 31.2661 78.4742 33.8585 80.0637C36.451 81.6532 39.5088 82.5142 42.5002 82.5142C42.8325 82.5142 43.1649 82.5142 43.4973 82.5142C43.8296 82.5142 44.162 82.5142 44.4944 82.5142C47.5522 82.5142 50.5435 81.6532 53.136 80.0637C55.795 78.4742 57.9886 76.2224 59.7169 73.6394C63.1736 68.4735 64.7025 62.1155 64.5695 55.9561C64.5695 52.1148 63.7054 48.0748 62.3759 44.4984H62.4424Z" fill="#E1DBCB"/>
<path d="M61.9762 35.665C59.9821 32.6594 57.4562 30.0546 54.3986 28.1177C51.4074 26.2475 47.9509 25.1121 44.428 25.1121C44.0956 25.1121 43.8298 25.1121 43.4974 25.1121C43.1651 25.1121 42.8327 25.1121 42.5668 25.1121C39.0439 25.1121 35.5874 26.2475 32.5962 28.1177C29.605 29.9878 27.0127 32.6594 25.0186 35.665C21.0303 41.6762 19.0362 49.0232 18.8368 56.3702C18.7703 63.7172 20.4986 71.1978 24.5533 77.4094C26.5474 80.415 29.2062 83.0866 32.2639 84.9568C32.3303 84.9568 32.4633 85.0236 32.5962 85.0903C33.128 85.3575 33.5933 85.6915 34.125 85.9586C34.3245 86.0254 34.5239 86.159 34.7233 86.2258C34.9227 86.2926 35.1221 86.4262 35.3215 86.493C37.648 87.428 40.1074 87.8956 42.5668 87.8956C42.8992 87.8956 43.1651 87.8956 43.4974 87.8956C43.8298 87.8956 44.0956 87.8956 44.428 87.8956C46.8874 87.8956 49.4133 87.428 51.6733 86.493C51.8727 86.4262 52.0721 86.3594 52.2715 86.2258C52.4709 86.159 52.6703 86.0254 52.8698 85.9586C53.4015 85.6915 53.8668 85.3575 54.3986 85.0903C54.5315 85.0903 54.598 84.9568 54.7309 84.9568C57.7886 83.0866 60.3809 80.415 62.4415 77.4094C66.4962 71.2646 68.2909 63.7172 68.158 56.3702C67.9586 49.0232 65.9645 41.743 61.9762 35.665ZM60.1815 74.4706C58.4533 77.1422 56.2598 79.5467 53.6009 81.3501C50.9421 83.1534 47.7515 84.2889 44.4945 84.3557C44.1621 84.3557 43.8298 84.3557 43.4974 84.3557C43.1651 84.3557 42.8327 84.3557 42.5003 84.3557C39.2433 84.3557 36.0527 83.1534 33.3939 81.3501C30.735 79.5467 28.5415 77.1422 26.8133 74.4706C23.3568 69.1273 21.695 62.7154 21.4956 56.3702C21.3627 50.0251 22.8915 43.4796 26.4144 38.0027C28.1427 35.2643 30.4027 32.8598 33.1945 31.0565C35.9198 29.2531 39.1768 28.1844 42.5003 28.1844C45.8239 28.1844 43.1651 28.1844 43.4974 28.1844C43.8298 28.1844 44.1621 28.1844 44.4945 28.1844C47.818 28.1844 51.0751 29.2531 53.8003 31.0565C56.5256 32.8598 58.7856 35.2643 60.5803 38.0027C64.1033 43.4796 65.5656 50.0251 65.4992 56.3702C65.2998 62.7154 63.638 69.1273 60.1815 74.4706Z" fill="#E1DBCB"/>
<path d="M19.4859 68.0453C19.3016 67.5038 19.0559 66.9622 18.8101 66.4884C18.3801 65.5407 17.8272 64.7284 17.4586 63.7808C15.7385 59.9901 15.4314 55.3871 16.7214 51.3933C17.1515 49.9718 17.7658 48.618 18.3187 47.1964C18.5644 46.5872 18.6873 46.0457 18.8716 45.4365C18.9944 44.8273 19.3016 44.4888 19.4244 43.9473C19.0559 44.5565 18.503 44.8949 18.1958 45.5719C18.1344 45.7072 18.0729 45.9103 18.0115 46.0457C17.7658 46.5872 17.4586 47.0611 17.2129 47.6026C16.9672 48.1441 16.7214 48.7533 16.4757 49.3626C15.8 51.3256 15.3699 53.424 15.2471 55.5224C15.2471 55.7932 15.2471 55.9963 15.2471 56.267C15.2471 59.8547 16.2914 63.3746 18.0115 66.4207C18.503 67.3007 19.0559 68.2484 19.7316 69.0607C19.7316 68.9253 19.6702 68.7899 19.6087 68.6545C19.4859 68.4514 19.4244 68.2484 19.4244 68.1807L19.4859 68.0453Z" fill="#E1DBCB"/>
<path d="M70.5849 49.1975C70.4006 48.6068 70.1549 48.0162 69.8477 47.4911C69.602 46.9661 69.2948 46.5067 69.0491 45.9817C68.9877 45.8505 68.9262 45.6536 68.8648 45.5223C68.5577 44.866 68.0662 44.5379 67.6976 43.9473C67.8819 44.4723 68.0662 44.8004 68.1891 45.3911C68.3734 45.9817 68.5577 46.5067 68.742 47.0974C69.2948 48.4756 69.9092 49.7881 70.3392 51.1663C71.5678 55.0383 71.3221 59.5009 69.602 63.1761C69.172 64.0949 68.6805 64.948 68.2505 65.8012C68.0048 66.3262 67.8205 66.7856 67.5747 67.3106C67.5747 67.3106 67.4519 67.5731 67.3904 67.77C67.3904 67.9012 67.329 68.0325 67.2676 68.1638C67.9433 67.4419 68.4962 66.5231 68.9877 65.6043C70.7078 62.6511 71.7521 59.2384 71.7521 55.7602C71.7521 55.4977 71.7521 55.3008 71.7521 55.0383C71.6907 53.0038 71.2607 50.9694 70.5235 49.0662L70.5849 49.1975Z" fill="#E1DBCB"/>
<path d="M62.7629 -0.0012207H24.2371C10.8166 -0.0012207 0 10.8536 0 24.1725V88.8354C0 102.221 10.8833 113.009 24.2371 113.009H62.7629C76.1834 113.009 87 102.154 87 88.8354V24.1725C87 10.787 76.1167 -0.0012207 62.7629 -0.0012207ZM73.1788 54.2064C73.3791 54.939 73.4459 55.6715 73.5127 56.404C73.5794 57.7359 73.3791 59.1344 72.9118 60.3997C72.5111 61.5318 71.9102 62.5307 71.3093 63.5962C70.241 65.4609 69.1727 67.3921 67.9041 69.1235C66.769 70.7884 65.3668 72.1203 64.7659 74.1181C64.4988 75.0504 64.2318 75.9827 64.0315 76.915C63.8979 77.6476 63.3638 78.4467 62.8964 79.0461C61.8949 80.3779 60.5595 81.4435 59.1573 82.3092C57.6216 83.2415 55.485 84.1738 54.9509 86.0384C54.8173 86.5046 54.8173 87.0374 55.0177 87.4369C55.0177 87.5701 55.1512 87.6367 55.218 87.7033C55.4183 87.8365 55.6853 87.8365 55.8857 87.8365C56.0192 87.8365 56.2195 87.8365 56.2863 87.6367C56.2863 87.5035 56.2195 87.3703 56.086 87.3037C55.9524 87.2371 55.8189 87.2371 55.6853 87.104C55.485 86.9708 55.485 86.7044 55.5518 86.438C55.6853 86.0385 55.9524 85.9053 56.353 85.9053C56.7537 85.9053 57.2878 85.9053 57.5549 86.105C57.822 86.2382 57.9555 86.5712 58.0223 86.9042C58.2226 87.7699 57.7552 88.7022 56.954 89.0352C55.8856 89.5013 54.617 89.1684 53.6155 88.8354C52.5472 88.5024 51.3454 88.0363 50.2103 88.3692C49.0084 88.7022 46.8051 89.235 48.0069 90.8332C48.2072 91.033 48.5411 91.1662 48.8081 91.033C48.9417 91.033 49.0084 90.8998 48.9417 90.7666C48.8749 90.5669 48.4743 90.5669 48.274 90.7666C48.274 90.4337 48.274 90.1007 48.6078 89.9009C48.6746 89.9009 48.7414 89.8343 48.8749 89.7677C49.4758 89.6345 50.1435 89.8343 50.4774 90.3671C50.6109 90.5668 50.7444 90.8332 50.8112 91.0996C50.9447 91.8321 50.9447 92.4981 50.3438 93.0974C50.01 93.4304 49.6094 93.6302 49.142 93.7634C49.0084 93.7634 48.8081 93.8966 48.6746 93.8966C48.3408 93.9632 47.9401 93.8966 47.6063 93.8966C47.0054 93.7634 46.4712 93.2972 46.0038 92.8977C45.67 92.6313 45.3361 92.2983 44.9355 92.0319C44.5349 91.7655 44.2678 91.5658 43.934 91.7655C43.7337 91.8987 43.6002 92.1651 43.6669 92.3649C43.7337 92.6313 44.0008 92.7645 44.2678 92.8977C44.4682 93.0308 44.7352 93.0974 44.9355 93.164C45.0023 93.164 45.1358 93.164 45.2026 93.2972C45.3362 93.2972 45.4029 93.4304 45.4697 93.5636C45.8035 94.0297 46.0038 94.6291 45.8703 95.1618C45.8703 95.1618 45.8703 95.295 45.8035 95.3616C45.8035 95.3616 45.7368 95.3616 45.67 95.3616C45.4697 95.3616 45.2694 95.3616 45.0691 95.295C44.6017 95.0953 44.1343 94.8289 43.7337 94.5625C43.6002 94.4959 43.5334 94.4293 43.3998 94.3627C43.2663 94.2961 43.1328 94.3627 42.9992 94.3627C42.9325 94.3627 42.8657 94.4959 42.7989 94.5625C42.5986 94.7623 42.3983 94.9621 42.1312 95.0953C41.9309 95.2284 41.7306 95.295 41.5303 95.295C41.2632 95.295 40.9962 95.2284 40.7959 95.0953C40.5288 94.9621 40.2617 94.7623 40.2617 94.4293C40.2617 94.0963 40.5288 93.83 40.7959 93.6302C41.0629 93.497 41.2632 93.3638 41.5303 93.2306C41.7974 93.0974 41.9977 93.0308 42.198 92.831C42.3983 92.6313 42.3983 92.2983 42.198 92.0985C42.198 92.0985 42.198 92.0985 42.1312 92.0985H41.9977C41.7306 92.2317 41.4636 92.3649 41.1965 92.5647C40.9294 92.7645 40.8626 92.8976 40.6623 93.0308C40.2617 93.3638 39.7943 93.6968 39.2602 93.83C38.9263 93.8966 38.5925 93.8966 38.1919 93.83C38.0583 93.83 37.858 93.7634 37.7245 93.6968C37.3239 93.5636 36.8565 93.2972 36.5226 93.0308C35.9217 92.4315 35.9885 91.7655 36.0553 91.033C36.0553 90.7666 36.1888 90.5003 36.3891 90.3005C36.7229 89.7677 37.3906 89.5679 37.9916 89.7011C38.0583 89.7011 38.1251 89.7011 38.2586 89.8343C38.5257 89.9675 38.6592 90.3671 38.5925 90.7C38.6592 90.3005 37.1236 90.8998 38.1251 91.0996C39.1266 91.2994 39.0599 90.1673 38.9931 89.7011C38.9931 89.235 38.726 88.7688 38.3254 88.569C38.0583 88.4358 37.7913 88.3692 37.4574 88.3027C36.5226 88.1695 35.5879 88.4358 34.6531 88.7688C33.7183 89.0352 32.8503 89.3682 31.8488 89.3682C30.9808 89.3682 29.9793 89.1018 29.3784 88.3692C28.7774 87.6367 28.9777 86.3048 29.9125 85.8387C30.8473 85.3725 30.5134 85.6389 30.7805 85.8387C31.0476 85.9718 31.1811 86.3048 31.1811 86.5712C31.1811 86.7044 31.1811 86.8376 31.1144 86.9708C30.9808 87.104 30.7137 87.0374 30.5134 87.104C30.3131 87.104 30.1796 87.2371 30.1128 87.4369C30.046 87.6367 30.1128 87.7699 30.2464 87.9031C30.3799 87.9697 30.5134 87.9697 30.647 87.9697C30.914 87.9697 31.1811 87.8365 31.3814 87.7033C31.7153 87.4369 31.782 86.8376 31.7153 86.438C31.7153 85.9053 31.4482 85.4391 31.1144 84.9729C30.7137 84.4402 30.2464 83.974 29.7122 83.5079C29.4451 83.3081 29.178 83.0417 28.911 82.8419C27.8427 82.1094 26.5741 81.7764 25.5058 80.9773C24.5042 80.1782 23.5027 79.1127 22.9018 77.9806C22.5679 77.3146 22.3676 76.6487 22.1673 75.9161C21.6999 74.5177 21.4329 73.1858 20.8319 71.8539C20.4981 71.3211 20.1642 70.7218 19.8304 70.189C19.4965 69.6563 19.0292 69.4565 18.5618 69.1235C17.3599 68.391 16.6922 67.0591 16.0246 65.7272C14.5556 62.8637 13.1535 59.8669 12.6193 56.6704C12.5526 56.0045 12.4858 55.4051 12.5526 54.7392C12.6193 54.2064 12.8196 53.6737 12.9532 53.1409C14.0215 50.1442 15.6239 47.3472 17.6938 44.8833C18.0944 44.4171 18.495 43.9509 18.9624 43.5514C19.4298 43.1518 19.8972 42.6856 20.2978 42.1529C21.6332 40.1551 21.1658 37.4247 22.3008 35.3603C22.9685 34.1616 24.0368 33.2959 25.1719 32.4301C26.1735 31.631 27.175 30.8985 28.1765 30.0993C28.5771 29.7664 29.1781 29.4334 29.5119 28.9672C29.8457 28.5011 29.9125 28.0349 29.9793 27.5688C29.9793 27.1026 29.9793 26.9028 29.6454 26.5699C29.5119 26.4367 29.3784 26.3035 29.2448 26.2369C29.1113 26.1703 28.8442 26.1703 28.7107 26.2369C28.5771 26.3035 28.5771 26.6364 28.7107 26.703H28.8442C29.0445 26.7696 29.1113 27.1026 29.0445 27.3024C29.0445 27.5688 28.911 27.8351 28.7107 27.9683C28.5104 28.1015 28.2433 28.1015 28.043 28.1015C27.9094 28.1015 27.7091 28.1015 27.5756 28.0349C27.4421 28.0349 27.3753 27.9017 27.2417 27.7685C26.9079 27.4356 26.7744 26.9694 26.8411 26.5033C27.0414 24.8384 28.7107 24.3057 30.1796 24.5054C31.0476 24.6386 31.8488 24.9716 32.7168 25.0382C33.5848 25.1048 34.7199 25.0382 35.4543 24.5054C36.122 24.0393 36.7897 23.7063 37.5242 23.3067C37.858 23.107 38.3254 22.8406 38.5257 22.5076C38.7928 22.108 38.5257 21.6419 38.1251 21.4421C37.7913 21.3089 37.3906 21.3089 37.0568 21.5087C36.99 21.5087 36.9233 21.7085 36.99 21.7751C37.1236 21.8417 37.3906 21.9083 37.5242 21.7751C37.591 21.9083 37.591 22.108 37.5242 22.3078C37.5242 22.441 37.3239 22.6408 37.1903 22.774C36.5894 23.3733 35.5879 23.1736 34.987 22.5742C34.0522 21.5753 34.3193 19.7772 35.5211 19.1113C37.3239 18.1124 39.3269 19.5109 40.7959 20.5098C41.0629 20.7096 42.1312 21.6419 42.4651 21.2423C42.5986 21.1091 42.5986 20.9759 42.4651 20.8428C42.3983 20.7096 42.198 20.643 42.0645 20.5764C41.3968 20.31 40.7291 19.9104 40.2617 19.4443C39.9946 19.1779 39.7943 18.9115 39.6608 18.512C39.5272 18.1124 39.6608 17.7128 39.9946 17.513C40.2617 17.3799 40.5288 17.3799 40.8626 17.513C41.4636 17.7128 41.8642 18.1124 42.3983 18.4454C42.5318 18.5786 42.7322 18.6451 42.9325 18.6451C43.1328 18.6451 43.3331 18.4454 43.4666 18.3122C43.8005 17.9792 44.2011 17.5796 44.6685 17.4464C45.1358 17.3133 45.7368 17.4465 46.0038 17.846C46.1374 18.0458 46.1374 18.3122 46.0038 18.5786C45.8703 18.8449 45.8035 19.0447 45.67 19.2445C45.1358 19.9104 44.4682 20.3766 43.6669 20.643C43.5334 20.643 43.4666 20.643 43.3998 20.7762C43.2663 20.9093 43.2663 21.1757 43.3998 21.3089C43.8672 21.7085 44.6685 21.0425 45.0691 20.7762C45.4697 20.5764 45.8035 20.31 46.2042 20.1102C46.7383 19.7772 47.3392 19.4443 47.9401 19.1779C48.7414 18.8449 49.8764 18.7117 50.6777 19.1779C51.8795 19.8438 52.1466 21.6419 51.2118 22.6408C50.6777 23.2401 49.6761 23.3733 49.0084 22.8406C48.8749 22.7074 48.7414 22.5742 48.6746 22.3744C48.6746 22.1746 48.6746 21.9749 48.6746 21.8417C48.8081 21.9749 49.0084 21.9749 49.2088 21.8417C49.2755 21.7751 49.2088 21.6419 49.142 21.5753C48.8081 21.3755 48.4075 21.3755 48.0737 21.5087C47.6731 21.7085 47.406 22.1746 47.6731 22.5742C47.8734 22.9072 48.3408 23.1735 48.6746 23.3733C49.3423 23.7729 50.0767 24.1059 50.7444 24.572C51.4789 25.1048 52.614 25.1714 53.482 25.1048C54.35 25.0382 55.1512 24.7718 55.9524 24.572C56.6869 24.3722 57.4213 24.3722 58.1558 24.7718C58.2893 24.7718 58.3561 24.905 58.4896 24.9716C58.6899 25.1048 58.8235 25.238 58.957 25.3712C59.0906 25.5709 59.1573 25.9039 59.2241 26.1703C59.2241 26.4367 59.2909 26.703 59.2241 27.036C59.2241 27.2358 59.1573 27.369 59.0238 27.5688C59.0238 27.6354 58.957 27.7685 58.8903 27.7685C58.7567 27.9017 58.6232 27.9017 58.4896 27.9683C58.3561 27.9683 58.2226 27.9683 58.0223 27.9683C57.5549 27.9683 57.0875 27.5688 57.0207 27.1026C57.0207 26.9694 57.0207 26.8362 57.0875 26.703C57.221 26.5699 57.4213 26.5699 57.6216 26.6364C57.6216 26.6364 57.6884 26.6364 57.7552 26.6364C57.8219 26.6364 57.8887 26.5033 57.8887 26.4367C57.8887 25.9705 57.2878 25.9705 57.0207 26.1703C56.7537 26.3701 56.4866 26.8362 56.4198 27.2358C56.086 28.9672 58.0223 30.3657 59.3576 31.0983C59.825 31.3646 60.2924 31.5644 60.7598 31.7642C62.1619 32.5633 63.297 33.762 63.8979 35.2937C64.4321 36.4924 64.5656 37.7577 64.8995 39.023C65.033 39.5557 65.2333 40.1551 65.4336 40.6878C65.6339 41.2206 66.1013 41.6867 66.4352 42.1529C66.769 42.6191 66.9025 43.0852 67.3031 43.4848C67.7038 43.8843 68.1711 44.2839 68.505 44.7501C68.7721 45.083 69.0391 45.416 69.3062 45.8156C70.1074 46.9477 70.5748 48.2796 71.109 49.6114C71.7099 51.0765 72.3776 52.5416 72.7114 54.1398L73.1788 54.2064Z" fill="#E1DBCB"/>
</svg>
